<?xml version="1.0" standalone="no"?>
<!DOCTYPE svg PUBLIC "-//W3C//DTD SVG 20010904//EN"
 "http://www.w3.org/TR/2001/REC-SVG-20010904/DTD/svg10.dtd">
<svg version="1.0" xmlns="http://www.w3.org/2000/svg"
 width="2000.000000pt" height="1415.889472pt" viewBox="0 0 2000.000000 1415.889472"
 preserveAspectRatio="xMidYMid meet">
<metadata>
Created by potrace 1.12, written by Peter Selinger 2001-2015
</metadata>
<g transform="translate(0.000000,1415.889472) scale(0.100000,-0.100000)"
fill="#000000" stroke="none">
<path d="M16115 14153 c-116 -10 -321 -49 -400 -75 -49 -16 -119 -46 -155 -66
-36 -20 -128 -66 -205 -102 -77 -36 -171 -84 -210 -107 -38 -22 -122 -66 -185
-97 -63 -32 -122 -61 -130 -65 -8 -4 -73 -39 -145 -76 -215 -113 -321 -194
-444 -340 -87 -103 -129 -170 -171 -274 -17 -42 -35 -85 -40 -96 -5 -11 -17
-40 -28 -65 -10 -25 -49 -94 -86 -153 -101 -160 -111 -195 -143 -486 -25 -229
-27 -368 -8 -541 27 -251 109 -687 189 -1004 78 -305 126 -520 146 -646 15
-93 40 -185 79 -293 44 -122 64 -196 66 -253 1 -28 5 -59 9 -70 6 -19 2 -20
-91 -16 -54 2 -141 13 -193 24 -52 11 -126 24 -165 28 -38 4 -101 15 -138 24
-38 9 -105 21 -150 27 -97 12 -320 76 -430 125 -77 33 -124 45 -327 79 -149
25 -182 39 -261 112 -43 39 -97 77 -137 96 -62 28 -75 31 -165 29 -64 0 -109
4 -131 13 -19 8 -53 14 -77 13 -24 0 -70 5 -103 12 -48 10 -68 21 -116 65 -78
72 -144 96 -240 88 -100 -8 -116 -30 -86 -116 35 -96 117 -184 268 -286 43
-29 81 -58 85 -64 11 -18 12 -308 1 -344 -5 -18 -27 -46 -50 -65 -45 -35 -70
-84 -88 -170 -6 -31 -23 -74 -37 -95 -54 -77 -68 -157 -34 -187 16 -15 38 -18
118 -18 119 1 261 17 325 38 45 14 48 14 110 -12 115 -48 241 -115 363 -192
154 -97 183 -120 342 -274 73 -71 136 -128 141 -128 4 0 51 -33 103 -72 53
-40 153 -116 223 -169 129 -99 206 -181 251 -269 29 -55 68 -96 165 -170 42
-32 96 -84 120 -116 24 -33 73 -93 110 -134 36 -41 93 -109 125 -150 85 -109
258 -283 345 -348 132 -98 294 -284 345 -397 12 -27 39 -86 60 -130 25 -54 42
-110 52 -170 98 -612 100 -621 264 -960 146 -302 177 -379 209 -516 12 -51 33
-128 46 -169 26 -83 77 -324 93 -440 23 -166 61 -413 84 -555 14 -82 38 -231
52 -330 15 -99 29 -182 31 -186 11 -19 65 -358 74 -469 6 -74 19 -193 28 -265
14 -107 17 -209 16 -580 -1 -247 -7 -499 -13 -560 -6 -60 -18 -182 -27 -269
-12 -123 -24 -185 -50 -270 -30 -95 -47 -181 -81 -413 -5 -38 -4 -43 14 -43
18 0 21 9 27 73 12 124 37 256 67 351 33 103 51 218 75 491 24 278 26 1030 2
1245 -9 85 -22 216 -28 290 -7 74 -31 234 -55 355 -24 121 -49 258 -55 305 -7
47 -28 180 -47 295 -19 116 -43 275 -54 355 -37 268 -71 454 -105 570 -19 63
-43 153 -54 200 -36 159 -122 368 -270 657 -39 74 -79 165 -90 201 -26 88 -97
468 -114 607 -12 102 -18 122 -81 260 -37 82 -80 168 -96 190 -65 93 -191 224
-269 283 -47 35 -120 98 -163 140 -71 69 -328 365 -400 460 -48 63 -149 161
-215 208 -51 37 -68 57 -92 107 -59 123 -131 208 -234 274 -38 25 -101 73
-141 108 -40 35 -83 69 -96 75 -59 31 -183 134 -291 241 -143 143 -320 265
-540 375 -203 102 -219 106 -286 83 -76 -26 -322 -55 -369 -43 -53 13 -55 44
-9 112 24 34 43 80 57 137 20 78 28 93 74 144 29 31 56 70 60 86 4 17 9 107
10 202 2 199 7 186 -105 260 -41 28 -98 71 -126 96 -57 51 -138 176 -132 204
4 21 60 35 103 27 49 -10 121 -51 175 -99 28 -25 63 -47 78 -51 15 -3 45 -10
66 -16 22 -5 54 -7 72 -3 25 4 46 -1 83 -20 49 -24 52 -25 112 -11 55 13 67
13 108 -1 79 -26 133 -59 211 -125 85 -72 117 -84 325 -117 66 -11 154 -32
195 -46 232 -82 377 -124 476 -140 60 -9 127 -21 149 -27 22 -5 78 -16 125
-24 47 -7 114 -21 150 -29 36 -9 126 -20 200 -25 154 -10 156 -12 186 -103 31
-95 118 -261 167 -318 75 -88 117 -147 117 -166 0 -10 14 -32 31 -49 37 -35
205 -262 272 -368 33 -53 34 -81 2 -171 -27 -77 -31 -109 -13 -103 7 3 23 37
37 76 13 40 28 71 33 70 5 -2 8 -6 6 -8 -3 -6 23 -51 115 -193 l69 -107 -22
-53 c-12 -28 -33 -69 -46 -89 -30 -47 -30 -64 -1 -72 40 -10 44 -7 56 52 7 31
22 72 33 90 l20 33 26 -38 c14 -21 40 -56 58 -78 18 -22 55 -74 83 -115 28
-41 65 -94 82 -118 20 -25 35 -59 38 -85 4 -30 12 -45 28 -52 16 -6 26 -24 34
-60 16 -67 54 -142 80 -155 11 -7 23 -10 25 -7 2 2 -16 44 -40 93 -71 140 -69
150 10 72 l68 -67 17 -98 c19 -110 54 -212 75 -220 25 -9 26 4 5 53 -43 96
-65 224 -39 224 6 0 39 -26 72 -58 46 -45 78 -65 134 -86 94 -36 123 -61 146
-127 22 -63 32 -77 45 -63 6 5 2 27 -11 57 -11 26 -18 50 -14 54 3 4 28 -4 55
-16 41 -20 52 -31 72 -75 12 -28 21 -51 18 -52 -13 -2 57 -54 72 -54 24 0 25
-41 3 -80 -17 -27 -14 -60 5 -60 5 0 16 18 24 39 9 22 21 42 26 46 6 3 25 -19
42 -50 27 -48 53 -75 73 -75 13 0 5 25 -18 54 -12 17 -32 48 -43 70 -20 39
-20 39 0 75 27 49 86 78 102 50 4 -5 -1 -19 -11 -30 -16 -17 -16 -22 -4 -29
22 -14 28 -12 35 11 7 20 60 59 82 59 6 0 19 -7 27 -15 13 -13 13 -20 3 -35
-10 -17 -8 -22 10 -35 12 -9 31 -36 42 -60 11 -25 25 -45 30 -45 17 0 13 37
-10 81 -24 48 -19 58 16 35 15 -10 33 -16 42 -14 14 2 12 8 -10 31 -14 16 -24
34 -21 41 6 16 95 26 149 17 l40 -6 -1 -55 c0 -30 -4 -65 -8 -76 -6 -16 -3
-23 10 -28 25 -10 34 10 34 82 l0 63 58 -7 c46 -5 68 -15 114 -51 99 -75 163
-90 189 -42 15 29 6 33 -35 18 -31 -11 -41 -11 -71 4 -78 37 -171 150 -149
183 5 9 43 33 84 55 41 22 85 50 98 61 17 17 22 18 22 6 0 -9 -7 -21 -15 -28
-8 -6 -17 -22 -21 -33 -4 -12 -15 -34 -25 -49 -24 -33 -24 -48 -1 -48 20 0 73
75 97 137 19 48 25 48 96 -3 70 -51 88 -55 131 -30 31 17 58 51 58 71 0 16
-30 0 -48 -25 -14 -18 -32 -30 -46 -30 -31 0 -130 71 -134 96 -4 31 41 101
118 184 l70 75 25 -30 c21 -26 25 -40 25 -103 0 -63 2 -73 17 -70 13 2 17 15
17 62 1 34 6 61 12 63 6 2 20 10 30 18 18 13 18 14 -8 24 -30 11 -35 32 -18
77 10 27 11 27 25 7 7 -10 32 -55 54 -99 51 -97 60 -109 74 -95 12 12 7 23
-61 142 -20 37 -43 74 -51 83 -11 13 -12 22 -2 42 11 24 15 26 54 20 l42 -7
27 63 c37 87 51 168 43 244 l-6 63 42 45 c23 25 45 46 49 46 29 0 57 -289 30
-305 -6 -4 -8 -21 -4 -40 3 -18 1 -42 -6 -54 -15 -29 -4 -44 21 -31 14 8 19
21 19 51 0 32 7 47 36 77 20 20 52 61 70 90 l34 53 8 219 c6 187 10 221 25
237 9 11 18 35 18 54 1 29 3 26 10 -16 4 -27 13 -92 19 -144 12 -105 14 -111
37 -111 11 0 14 6 9 25 -4 14 -9 46 -12 73 -5 44 -4 46 10 28 9 -11 16 -23 16
-28 0 -12 28 -10 36 3 3 6 -5 21 -19 33 -15 11 -31 34 -37 49 -21 58 -2 255
26 264 12 4 64 -112 83 -184 9 -32 17 -43 31 -43 11 0 20 6 20 14 0 19 -69
173 -92 208 -24 34 -23 75 3 133 l21 48 43 -89 c53 -111 116 -186 154 -182 41
5 39 34 -3 42 -30 6 -42 17 -73 64 -52 82 -93 176 -93 216 0 36 45 180 80 257
17 37 20 40 20 18 0 -66 108 -362 133 -367 25 -5 21 12 -18 95 -41 86 -42 94
-15 111 23 14 26 32 7 32 -8 0 -21 17 -30 38 -8 20 -28 68 -43 105 l-28 68 18
52 c29 85 70 162 86 162 9 0 18 -20 27 -60 17 -82 16 -115 -3 -136 -13 -15
-15 -24 -6 -46 56 -152 102 -389 102 -531 0 -91 -1 -95 -29 -121 -33 -31 -27
-61 14 -61 20 0 25 7 34 50 24 111 8 318 -38 484 -17 62 -47 313 -38 322 4 4
104 -166 116 -197 11 -31 39 -45 47 -24 8 21 -18 83 -77 181 -50 83 -109 219
-109 252 0 10 16 53 35 97 26 61 31 82 23 93 -15 17 -20 140 -9 167 5 11 14
45 20 75 6 30 17 84 26 120 35 159 47 309 42 530 -3 118 -10 267 -16 330 -6
63 -15 174 -21 245 -58 735 -63 791 -95 1030 -14 105 -32 264 -41 355 -14 165
-67 467 -104 596 -34 118 -135 273 -306 468 -97 111 -181 166 -346 225 -143
51 -233 91 -285 127 -59 40 -245 112 -373 144 -69 17 -181 49 -250 70 -170 52
-233 66 -387 90 -123 19 -320 24 -448 13z m424 -44 c82 -12 224 -43 326 -71
99 -27 240 -65 313 -84 144 -37 210 -63 402 -160 69 -35 175 -81 237 -102 209
-73 305 -146 454 -343 120 -158 172 -248 207 -359 46 -146 94 -416 107 -605 3
-49 19 -189 35 -310 33 -253 32 -240 65 -650 42 -526 44 -555 61 -741 25 -289
12 -565 -36 -763 -29 -116 -60 -288 -60 -333 0 -48 -19 -88 -41 -88 -10 0 -29
14 -43 32 -14 18 -27 30 -30 27 -3 -2 0 -54 6 -114 12 -129 2 -208 -45 -328
-23 -58 -34 -76 -46 -73 -9 2 -28 7 -43 10 -44 10 -48 76 -12 200 17 61 18 86
2 86 -8 0 -26 -53 -46 -138 l-34 -137 21 -14 c28 -18 26 -39 -5 -72 -30 -31
-27 -59 6 -59 24 0 40 34 40 85 0 44 9 48 48 23 27 -17 31 -24 25 -46 -7 -29
-83 -235 -89 -241 -2 -2 -9 8 -15 22 -13 28 -38 42 -51 29 -5 -5 5 -25 22 -47
16 -21 30 -50 30 -64 0 -27 -47 -137 -55 -129 -3 3 -6 25 -7 49 -1 40 -11 58
-30 59 -14 0 -20 -82 -8 -111 9 -21 10 -37 2 -56 -6 -16 -18 -54 -28 -85 -9
-32 -21 -58 -25 -58 -5 0 -15 13 -23 29 -14 27 -43 47 -53 37 -3 -2 7 -25 22
-50 33 -57 30 -74 -29 -154 -25 -33 -54 -78 -64 -99 -11 -21 -32 -51 -47 -67
-26 -28 -28 -29 -41 -12 -14 20 -34 102 -34 141 0 27 -19 43 -30 26 -10 -17 6
-103 32 -174 23 -64 19 -76 -35 -104 -21 -10 -32 -12 -40 -4 -18 18 -28 12
-21 -14 5 -19 -13 -52 -89 -167 -52 -79 -98 -153 -102 -165 -3 -13 -10 -23
-15 -23 -4 0 -25 34 -47 75 -21 41 -44 75 -50 75 -18 0 -18 0 33 -102 49 -98
50 -113 10 -163 l-24 -30 -13 28 c-7 16 -20 27 -32 27 -17 0 -19 -5 -14 -35 3
-19 2 -35 -4 -35 -5 0 -9 -7 -9 -16 0 -14 3 -14 15 -4 8 7 15 8 15 3 0 -13
-81 -115 -86 -110 -7 6 28 101 44 120 20 23 11 31 -20 17 -19 -9 -28 -26 -43
-83 -12 -45 -34 -94 -62 -135 -24 -36 -43 -66 -43 -69 0 -2 -10 -18 -22 -34
-23 -31 -121 -95 -190 -124 l-38 -15 -31 62 c-34 69 -65 108 -86 108 -20 0
-16 -10 21 -65 63 -90 76 -135 41 -135 -10 0 -17 17 -21 49 -6 44 -8 48 -21
35 -9 -9 -13 -28 -11 -51 2 -32 -1 -40 -22 -50 -14 -6 -54 -13 -89 -15 l-65
-3 -7 34 c-4 18 -12 44 -19 56 -10 18 -8 28 9 56 43 70 17 82 -31 14 -18 -25
-35 -45 -40 -45 -4 0 -11 12 -14 28 -7 28 -23 44 -36 36 -4 -3 -5 -31 -2 -63
6 -58 6 -59 -33 -99 -63 -65 -120 -67 -93 -2 17 42 8 60 -16 31 -65 -80 -57
-75 -98 -60 -31 11 -42 24 -68 77 -17 34 -35 65 -40 68 -20 13 -25 -9 -12 -52
12 -42 12 -45 -4 -42 -16 3 -22 21 -38 106 -2 12 -11 22 -20 22 -13 0 -15 -10
-12 -49 l3 -48 -50 14 c-66 19 -94 38 -106 71 -21 56 -83 188 -95 201 -12 13
-14 12 -19 -1 -3 -8 13 -57 35 -107 23 -51 40 -95 37 -97 -10 -11 -140 68
-216 130 -44 37 -81 69 -82 69 -1 1 -4 55 -8 119 -6 104 -19 154 -35 137 -3
-3 -2 -53 2 -112 4 -59 4 -107 0 -107 -4 0 -30 24 -58 53 -87 90 -94 143 -75
526 6 123 5 162 -4 157 -6 -4 -11 -36 -11 -79 0 -40 -9 -124 -20 -187 -11 -63
-20 -149 -20 -190 l-1 -75 -35 40 c-41 46 -74 105 -74 134 0 10 9 49 21 85 32
107 51 228 36 238 -9 5 -16 -11 -26 -60 -17 -85 -63 -242 -71 -242 -3 0 -14
15 -25 33 -10 17 -39 58 -64 90 l-45 57 32 33 c36 37 224 402 220 426 -7 34
-31 13 -50 -44 -22 -61 -71 -153 -92 -170 -6 -5 -41 -54 -76 -108 l-65 -99
-27 33 c-15 18 -44 64 -65 103 l-38 71 -3 193 c-3 158 -6 192 -18 192 -11 0
-14 -28 -14 -156 0 -120 -3 -155 -12 -151 -9 2 -13 36 -15 116 -1 62 -3 114
-5 117 -3 2 -12 -2 -21 -9 -14 -10 -15 -18 -7 -46 5 -20 6 -40 1 -50 -8 -13
-12 -10 -28 17 -10 18 -37 63 -60 100 -24 36 -43 74 -43 83 0 9 -11 21 -23 26
-13 6 -45 41 -72 78 -45 64 -47 69 -42 118 3 29 12 75 20 102 25 86 30 145 14
145 -9 0 -23 -36 -42 -115 -15 -63 -30 -115 -32 -115 -11 0 -99 111 -128 163
-15 25 -14 34 10 125 41 152 39 143 22 136 -9 -3 -19 -16 -23 -27 -3 -12 -20
-36 -36 -54 -17 -17 -28 -36 -24 -41 3 -6 3 -24 0 -42 -7 -31 -7 -31 -50 47
-24 43 -58 122 -76 176 -31 94 -32 99 -15 112 17 12 17 15 3 37 -8 13 -24 66
-35 119 -11 53 -40 150 -64 215 -43 117 -55 166 -97 389 -12 61 -57 254 -100
430 -43 176 -86 350 -94 386 -104 455 -158 931 -126 1110 5 30 14 117 20 194
17 214 34 267 136 421 30 45 77 137 105 205 94 230 158 329 303 466 115 110
209 169 501 318 149 75 275 141 280 145 14 11 312 160 321 160 4 0 42 20 84
45 126 74 265 114 495 144 191 25 328 25 504 0z m2058 -4630 c11 -11 9 -91 -3
-129 -5 -13 -6 -13 -14 0 -13 20 -12 64 1 77 8 8 8 17 0 31 -18 33 -8 45 16
21z m26 -171 c4 -12 4 -24 1 -27 -6 -7 -24 20 -24 37 0 21 17 13 23 -10z
m-485 -1339 c-3 -126 -6 -150 -22 -167 -14 -17 -22 -19 -40 -11 -17 8 -28 31
-46 95 -22 81 -23 86 -7 117 27 52 81 151 91 167 19 28 28 -51 24 -201z m-298
-215 c0 -19 -4 -33 -9 -30 -9 6 -26 -30 -35 -79 -6 -28 -5 -29 9 -11 8 11 15
28 15 37 0 10 5 21 11 25 9 5 10 -4 5 -32 -14 -71 -63 -144 -97 -144 -15 0
-15 5 7 49 13 27 28 71 35 98 14 62 41 123 55 123 2 0 4 -16 4 -36z m236 -51
c-22 -43 -46 -50 -47 -15 -4 83 6 101 38 69 24 -23 24 -26 9 -54z m-324 -50
c-21 -57 -78 -143 -93 -143 -15 0 -1 36 38 99 20 31 42 67 50 79 23 37 26 19
5 -35z m-100 -218 c3 -14 1 -28 -3 -31 -5 -3 -9 -18 -9 -35 0 -32 -15 -37 -46
-15 -19 14 -18 15 3 60 25 51 48 59 55 21z m-942 -495 c0 -16 -4 -30 -10 -30
-11 0 -14 43 -3 53 11 12 13 8 13 -23z m-46 -56 c11 -29 6 -34 -29 -34 -40 0
-42 3 -17 29 21 24 38 26 46 5z m-351 -68 c15 -30 32 -58 37 -61 6 -4 8 -10 5
-15 -7 -12 -70 50 -89 88 -20 38 -15 72 7 53 8 -6 26 -35 40 -65z m405 57 c-4
-22 -22 -20 -26 1 -2 10 3 16 13 16 10 0 15 -7 13 -17z m343 -15 c7 -26 5 -28
-26 -28 -46 0 -63 23 -33 44 31 22 50 17 59 -16z m-648 -36 c3 -4 -6 -21 -19
-37 -15 -19 -24 -24 -24 -15 0 8 -3 25 -6 38 -5 19 -2 22 19 22 14 0 28 -3 30
-8z m317 -27 c0 -8 -4 -17 -10 -20 -6 -4 -10 5 -10 20 0 15 4 24 10 20 6 -3
10 -12 10 -20z"/>
<path d="M17048 13084 c-53 -19 -134 -39 -180 -45 -131 -16 -236 -38 -330 -70
-48 -16 -129 -36 -180 -44 -51 -7 -154 -26 -228 -40 -74 -15 -183 -35 -242
-45 -59 -10 -122 -23 -140 -29 -18 -6 -71 -19 -118 -30 -189 -43 -300 -74
-390 -110 -52 -21 -115 -44 -140 -50 -25 -7 -92 -37 -150 -65 -58 -29 -179
-76 -270 -105 -397 -128 -447 -145 -480 -168 -19 -13 -52 -28 -73 -34 -40 -11
-57 -33 -39 -51 13 -13 72 10 123 48 40 29 86 46 384 144 138 45 297 103 355
129 58 27 147 63 198 80 51 18 121 45 155 60 71 32 396 113 607 151 36 6 94
18 130 25 129 27 227 45 323 60 54 8 144 31 200 49 56 19 149 42 207 50 58 9
139 21 180 27 65 10 128 29 195 59 38 17 50 17 102 -2 60 -21 79 -22 88 -8 4
6 -13 19 -37 30 -63 29 -135 24 -250 -16z"/>
<path d="M17575 12880 c-53 -5 -122 -19 -168 -34 -66 -22 -95 -26 -195 -26
-147 0 -461 -17 -567 -30 -75 -9 -295 -61 -474 -111 -41 -12 -129 -49 -195
-84 -170 -89 -272 -109 -452 -91 -75 8 -89 6 -185 -23 -235 -71 -355 -113
-442 -156 -66 -32 -129 -54 -223 -75 -72 -16 -142 -33 -155 -39 -13 -5 -55
-19 -94 -31 -83 -25 -126 -53 -108 -71 9 -9 20 -7 47 10 50 31 195 79 311 102
133 26 152 32 280 94 61 29 162 67 225 85 63 17 147 43 187 57 68 23 80 24
205 18 106 -5 149 -3 212 10 97 20 193 58 245 96 56 40 94 54 255 94 77 20
164 42 191 50 114 31 233 45 490 55 390 15 412 17 498 45 60 19 99 25 170 25
93 0 125 9 113 29 -8 12 -30 12 -171 1z"/>
<path d="M17005 12600 c-147 -56 -247 -86 -365 -111 -101 -21 -151 -34 -415
-104 -66 -17 -185 -42 -265 -54 -80 -13 -176 -32 -215 -43 -38 -11 -108 -31
-155 -44 -47 -13 -116 -29 -155 -35 -38 -6 -114 -19 -169 -30 -62 -12 -140
-19 -212 -19 -115 0 -229 -22 -297 -57 -29 -15 -98 -29 -197 -41 -53 -7 -56
-9 -77 -52 -12 -25 -22 -51 -22 -57 -2 -25 30 -13 39 15 22 60 16 57 180 78
30 4 75 18 99 31 24 12 53 23 63 23 11 0 43 6 71 14 29 8 106 17 173 20 66 3
165 15 220 26 54 11 113 20 129 20 17 0 109 22 205 49 96 27 193 51 215 54
184 27 268 43 380 74 237 65 309 83 410 104 125 26 314 81 405 119 67 27 76
28 218 25 121 -2 156 -6 197 -23 28 -11 67 -23 88 -26 21 -2 51 -16 68 -30 34
-29 59 -34 59 -12 0 25 -62 64 -130 81 -35 9 -74 22 -85 28 -12 7 -88 12 -190
13 l-170 2 -100 -38z"/>
<path d="M17420 12057 c-3 -3 -70 -10 -150 -16 -80 -7 -183 -18 -230 -26 -125
-20 -260 -35 -319 -35 -29 0 -66 -7 -84 -16 -35 -18 -87 -63 -87 -76 0 -16 37
-8 55 12 29 32 92 48 255 65 85 8 207 22 270 30 282 36 369 38 535 13 95 -14
122 -25 178 -71 29 -24 52 -36 58 -30 21 21 -64 93 -135 115 -52 15 -337 45
-346 35z"/>
<path d="M15000 11459 c-226 -29 -348 -60 -427 -107 -38 -23 -99 -53 -136 -67
-92 -34 -112 -49 -136 -100 -30 -64 -36 -95 -18 -95 8 0 22 21 33 52 23 61 45
79 147 117 43 16 106 47 140 69 39 25 83 44 117 51 30 5 97 19 149 31 95 20
270 29 361 18 176 -22 176 -22 232 -66 62 -47 68 -49 68 -24 0 10 -23 35 -52
57 -50 37 -60 40 -163 52 -164 20 -232 22 -315 12z"/>
<path d="M16710 11425 c-28 -25 -69 -57 -90 -70 -57 -36 -110 -106 -152 -198
-42 -93 -45 -112 -22 -121 22 -8 22 -8 39 58 29 111 76 177 168 238 61 40 117
97 117 118 0 11 -2 20 -5 20 -2 0 -27 -20 -55 -45z"/>
<path d="M17268 11289 c-16 -9 -98 -21 -242 -34 -39 -4 -113 -17 -165 -31 -52
-13 -116 -27 -143 -30 -44 -6 -54 -13 -133 -96 l-85 -89 32 -46 c67 -93 113
-117 182 -96 18 6 71 11 117 12 46 1 102 8 125 16 23 8 59 14 80 14 21 -1 56
7 78 16 21 9 53 17 70 17 37 1 143 72 180 121 50 66 58 191 13 222 -24 17 -83
19 -109 4z m75 -28 c34 -13 41 -42 26 -104 -21 -90 -163 -205 -146 -118 4 21
1 33 -12 45 -21 19 -56 130 -46 146 3 6 18 10 33 11 15 0 45 6 67 14 52 17 50
17 78 6z m-500 -133 c-2 -35 -9 -74 -14 -88 -7 -19 -5 -36 12 -69 11 -24 17
-47 12 -51 -4 -5 -42 -10 -83 -13 -41 -3 -87 -8 -101 -12 -31 -8 -75 25 -104
79 l-19 35 69 71 c70 71 81 77 185 98 25 5 46 10 47 11 0 0 -1 -27 -4 -61z
m100 -205 c-13 -2 -33 -2 -45 0 -13 2 -3 4 22 4 25 0 35 -2 23 -4z"/>
<path d="M16161 11128 c0 -18 5 -58 10 -88 5 -30 13 -140 18 -245 7 -154 13
-201 31 -250 11 -33 45 -130 74 -215 78 -228 114 -301 167 -338 139 -96 192
-225 159 -384 -15 -74 -30 -106 -70 -152 -29 -32 -35 -35 -113 -41 -64 -5 -99
-2 -163 13 -72 18 -90 19 -151 8 -50 -8 -81 -20 -109 -42 -49 -38 -118 -64
-170 -64 -38 0 -43 4 -99 75 -84 106 -107 156 -102 226 3 56 35 132 83 194 31
41 72 166 80 246 4 41 1 113 -9 190 -9 68 -19 162 -22 209 -4 47 -13 123 -22
170 -8 47 -19 128 -23 180 -5 52 -15 145 -24 205 -8 61 -15 113 -16 118 0 4
-7 7 -16 7 -18 0 -17 -11 2 -154 l7 -50 -29 27 c-58 54 -157 91 -293 108 -45
6 -84 17 -101 29 -33 24 -60 26 -60 5 0 -23 41 -44 106 -56 114 -20 279 -70
303 -92 57 -53 78 -99 95 -207 8 -58 22 -150 31 -204 8 -55 15 -124 15 -155 0
-31 7 -90 16 -131 31 -147 5 -310 -66 -415 -68 -101 -90 -157 -90 -230 0 -99
37 -174 141 -282 38 -40 45 -43 93 -43 68 0 158 31 202 70 19 16 45 30 58 30
13 0 37 5 54 11 24 8 44 6 97 -10 45 -14 94 -21 150 -21 129 0 141 4 184 69
55 82 64 117 62 258 -1 118 -2 125 -32 178 -17 31 -49 70 -71 88 -22 18 -55
44 -73 59 -42 35 -92 140 -150 309 -24 74 -56 166 -70 204 -21 61 -25 87 -25
200 0 75 -7 168 -16 220 -9 50 -19 114 -21 143 -3 36 -9 52 -19 52 -9 0 -14
-11 -13 -32z"/>
<path d="M15079 10959 c-5 -3 -49 -6 -97 -7 -94 -2 -166 -22 -234 -67 -36 -24
-88 -92 -88 -116 0 -29 52 -178 68 -192 37 -33 135 -67 211 -73 42 -3 101 -8
131 -12 30 -4 71 -4 90 0 19 4 64 12 100 17 173 25 292 97 330 199 l22 57 -31
25 c-70 58 -95 73 -149 90 -31 9 -80 27 -107 38 -105 42 -215 60 -246 41z
m-192 -133 c-2 -51 -8 -91 -16 -100 -11 -13 -11 -21 2 -48 8 -18 19 -50 22
-71 4 -21 16 -44 26 -50 25 -15 24 -27 -1 -27 -28 0 -131 47 -157 72 -30 28
-49 86 -34 101 15 15 14 27 -3 27 -18 0 -30 33 -21 60 7 22 63 68 120 99 63
34 65 32 62 -63z m441 55 c31 -15 70 -31 86 -35 33 -8 145 -82 152 -100 17
-43 -70 -126 -169 -161 -34 -13 -83 -31 -109 -41 -26 -10 -50 -15 -54 -11 -4
3 5 19 18 35 28 34 53 135 45 185 -3 18 -19 61 -35 95 -28 58 -29 62 -11 62
11 0 45 -13 77 -29z m-411 -83 c-2 -13 -4 -5 -4 17 -1 22 1 32 4 23 2 -10 2
-28 0 -40z"/>
<path d="M18170 9176 c0 -29 -32 -107 -61 -147 -11 -16 -36 -36 -55 -44 -19
-8 -49 -28 -66 -45 -36 -34 -99 -70 -123 -70 -16 0 -21 -25 -6 -34 16 -10 110
44 148 84 21 22 46 40 56 40 16 0 16 -3 -3 -41 -39 -76 -135 -199 -155 -199
-8 0 -26 -27 -41 -60 -17 -39 -41 -72 -66 -91 -35 -28 -47 -56 -32 -72 4 -3
25 15 48 40 52 60 96 102 136 132 17 13 43 40 56 60 14 20 35 51 48 68 13 18
29 57 36 85 6 29 32 94 56 143 51 101 68 175 40 175 -10 0 -16 -8 -16 -24z"/>
<path d="M16599 9048 c0 -2 -2 -39 -3 -83 -2 -44 -6 -109 -10 -145 -4 -36 -3
-70 1 -77 14 -20 50 -3 64 28 14 36 8 45 -21 29 -27 -15 -35 -8 -21 18 14 26
15 232 1 232 -5 0 -10 -1 -11 -2z"/>
<path d="M16125 9021 c-3 -5 3 -12 14 -16 10 -3 26 -14 36 -25 21 -23 14 -49
-27 -96 -24 -28 -28 -38 -19 -47 10 -9 21 -2 52 35 36 42 43 46 65 38 59 -23
59 1 2 56 -56 53 -109 76 -123 55z"/>
<path d="M16054 8983 c-58 -142 -134 -267 -134 -221 0 9 14 62 31 118 24 82
27 105 17 111 -22 14 -33 4 -36 -32 -2 -19 -13 -68 -24 -109 -12 -41 -27 -97
-34 -125 -8 -27 -22 -57 -33 -66 -98 -81 -139 -181 -141 -344 -1 -95 1 -105
38 -195 22 -52 52 -115 66 -140 13 -25 34 -86 45 -137 23 -105 34 -129 91
-201 41 -53 102 -92 142 -92 13 0 55 -7 93 -15 136 -29 270 -15 373 40 85 45
208 162 280 268 95 140 110 167 117 212 3 22 13 81 21 132 14 90 14 93 -7 135
-26 52 -67 98 -88 98 -9 0 -51 33 -94 73 -218 203 -238 216 -321 212 -30 -2
-63 -8 -73 -13 -31 -17 -116 -20 -150 -5 -21 8 -34 9 -38 3 -6 -10 -33 -8 -65
4 -28 10 -75 19 -105 19 -28 1 -50 -3 -103 -19 -20 -6 -21 -4 -14 17 6 15 19
25 35 27 15 2 35 16 47 32 21 29 100 218 100 239 0 25 -22 9 -36 -26z m864
-792 c10 -6 11 -22 2 -76 -13 -80 -22 -99 -108 -225 -135 -199 -265 -299 -425
-330 -67 -12 -133 -9 -207 10 -19 5 -57 12 -84 15 -41 6 -58 15 -102 57 -30
28 -65 74 -78 102 -27 58 -43 126 -29 126 5 0 36 -24 68 -52 32 -29 65 -56 74
-60 26 -11 96 -9 108 3 8 8 65 11 177 10 195 -3 190 -4 305 106 44 43 94 89
112 103 33 27 133 155 151 196 12 26 16 28 36 15z"/>
<path d="M15665 8973 c-59 -141 -155 -332 -182 -361 -18 -19 -33 -36 -33 -37
0 -2 9 -5 20 -8 28 -7 64 48 139 209 33 71 69 148 80 171 25 50 26 63 6 63 -8
0 -22 -17 -30 -37z"/>
<path d="M14570 8968 c0 -2 7 -25 15 -52 8 -27 15 -71 15 -98 0 -26 4 -48 10
-48 13 0 24 64 16 97 -21 86 -28 103 -41 103 -8 0 -15 -1 -15 -2z"/>
<path d="M16853 8943 c25 -74 57 -204 57 -229 0 -28 25 -64 44 -64 11 0 3 47
-33 178 -34 127 -36 132 -58 132 -10 0 -13 -6 -10 -17z"/>
<path d="M18177 8913 c-4 -3 -7 -23 -7 -43 0 -46 -38 -157 -79 -234 -18 -32
-31 -60 -29 -61 2 -2 11 -5 22 -7 22 -4 26 2 73 122 47 122 60 264 20 223z"/>
<path d="M17320 8787 c0 -2 6 -22 13 -43 8 -22 20 -84 27 -139 12 -93 11 -134
-5 -211 -8 -35 1 -46 31 -38 19 5 19 10 7 177 -14 181 -29 250 -56 255 -9 2
-17 1 -17 -1z"/>
<path d="M15420 8680 c-22 -44 -40 -85 -40 -91 0 -7 -17 -41 -37 -76 -48 -80
-106 -185 -134 -241 -18 -36 -20 -45 -8 -52 11 -7 10 -15 -4 -45 -20 -42 -22
-75 -4 -75 6 0 25 35 40 78 16 42 40 106 53 142 13 36 42 101 64 145 34 69 62
128 127 268 11 23 11 27 -2 27 -8 0 -32 -34 -55 -80z"/>
<path d="M17055 8705 c10 -83 41 -196 56 -206 8 -5 22 2 36 17 30 32 29 44 -2
44 -32 0 -45 25 -59 118 -7 46 -17 77 -25 80 -11 4 -12 -7 -6 -53z"/>
<path d="M18010 8617 c0 -86 -17 -156 -46 -188 -13 -14 -13 -18 0 -29 25 -20
37 -7 57 55 24 76 26 217 4 235 -13 11 -15 2 -15 -73z"/>
<path d="M17503 8549 c-6 -6 -8 -30 -5 -54 5 -49 -29 -135 -54 -135 -19 0 -18
-14 4 -33 26 -24 30 -22 43 23 7 22 16 40 21 40 14 0 -1 -57 -24 -96 -20 -34
-16 -59 7 -50 22 8 26 -39 10 -130 -19 -108 -19 -124 0 -124 8 0 16 13 19 33
14 91 18 140 17 230 0 79 3 104 19 133 24 42 25 70 4 78 -25 10 -27 8 -21 -21
6 -31 -1 -55 -14 -47 -5 3 -6 38 -2 78 6 72 -2 97 -24 75z"/>
<path d="M17727 8394 c-3 -4 -1 -16 5 -27 6 -12 8 -50 6 -92 -4 -65 -9 -80
-47 -136 -41 -61 -50 -104 -22 -104 15 0 14 -1 62 100 26 54 34 87 37 142 2
40 1 84 -2 98 -6 24 -25 33 -39 19z"/>
<path d="M15457 8165 c-30 -8 -42 -20 -63 -60 -15 -28 -40 -69 -55 -93 -16
-24 -29 -45 -29 -48 0 -3 -9 -25 -21 -50 -11 -25 -19 -58 -17 -72 3 -26 5 -25
27 18 13 25 34 59 47 76 55 74 155 227 152 233 -2 4 -20 2 -41 -4z"/>
<path d="M2305 11620 c-57 -11 -157 -35 -247 -59 -43 -12 -111 -30 -150 -40
-101 -27 -206 -67 -252 -98 -22 -14 -89 -52 -150 -85 -61 -33 -155 -89 -208
-124 -54 -35 -112 -71 -130 -80 -62 -30 -283 -183 -328 -227 -69 -66 -187
-201 -267 -305 -79 -102 -207 -244 -376 -418 -144 -147 -197 -224 -196 -284
l0 -45 13 42 c18 55 53 102 183 242 110 118 269 287 289 306 6 5 31 37 57 70
241 309 303 373 492 501 39 26 93 59 120 72 28 14 92 54 144 89 52 36 129 82
171 103 42 21 119 64 171 95 52 30 119 65 149 76 65 25 353 100 494 129 191
39 410 24 771 -54 254 -56 309 -74 530 -181 361 -174 439 -217 515 -280 8 -7
76 -46 150 -87 175 -97 254 -147 370 -235 96 -72 301 -280 418 -425 35 -43 67
-78 71 -78 36 0 324 -330 411 -470 52 -83 149 -220 190 -267 89 -102 178 -260
259 -458 54 -134 147 -416 160 -490 39 -215 91 -757 91 -947 l0 -128 -33 0
c-41 0 -145 27 -172 44 -31 20 -100 34 -225 46 -128 13 -241 35 -282 56 -15 8
-65 23 -111 34 -46 11 -110 29 -142 40 -32 11 -69 20 -81 20 -13 0 -63 13
-111 29 -49 16 -131 34 -183 41 -52 6 -117 16 -143 21 -97 18 -338 1 -447 -32
-86 -26 -212 -47 -324 -54 -50 -3 -173 -13 -273 -22 -159 -15 -198 -15 -315
-4 -73 8 -340 17 -593 21 -447 7 -712 21 -786 40 -20 6 -103 19 -185 30 -139
19 -186 26 -434 65 -214 34 -304 45 -358 45 -31 0 -100 11 -152 25 -57 15
-123 25 -165 25 -74 0 -229 -26 -359 -60 -44 -11 -87 -20 -97 -20 -10 0 -38
-6 -61 -14 -24 -8 -76 -24 -115 -36 -59 -18 -73 -25 -73 -42 0 -13 5 -18 14
-15 79 31 210 69 296 87 58 12 139 30 180 41 121 32 258 36 360 10 47 -11 137
-26 200 -31 162 -15 225 -31 90 -23 -119 7 -139 7 -495 -2 -279 -7 -432 -24
-475 -55 -14 -10 -41 -35 -60 -55 -19 -20 -52 -45 -73 -56 -34 -18 -37 -23
-37 -62 1 -39 2 -40 13 -19 7 12 31 34 52 49 22 15 50 39 63 54 31 38 86 70
136 81 22 5 180 13 351 18 171 4 321 13 335 18 16 6 51 4 100 -4 68 -12 145
-15 270 -11 25 1 86 -6 135 -15 50 -9 133 -22 185 -28 237 -29 313 -41 347
-56 21 -9 92 -34 158 -56 188 -63 368 -156 402 -207 20 -30 23 -47 23 -135 0
-189 -72 -386 -200 -546 -53 -66 -131 -194 -196 -320 -31 -60 -47 -79 -79 -96
-41 -21 -144 -48 -225 -59 -88 -12 -395 -65 -425 -73 -46 -12 -702 -7 -755 6
-25 6 -94 21 -155 32 -63 12 -127 31 -150 44 -22 13 -70 33 -108 45 -83 28
-154 80 -221 163 -48 60 -51 62 -54 36 -5 -46 71 -138 168 -201 67 -43 260
-109 390 -133 210 -39 346 -47 660 -39 l135 3 -80 -14 c-45 -8 -200 -18 -355
-22 -228 -7 -311 -5 -485 9 -248 21 -336 33 -393 53 -40 14 -42 14 -42 -4 0
-15 14 -22 70 -34 127 -29 454 -62 585 -59 309 7 667 24 800 37 88 9 203 19
255 22 52 3 120 15 150 25 30 11 90 26 133 34 82 15 340 112 392 148 90 61
122 106 169 238 24 66 36 84 83 124 30 26 56 45 59 42 3 -3 -10 -36 -30 -75
-50 -100 -72 -173 -90 -297 -51 -353 -80 -486 -189 -860 -101 -342 -101 -338
13 -463 59 -64 96 -95 142 -118 l62 -32 31 24 c18 13 41 24 53 24 12 0 90 -26
174 -57 221 -82 292 -82 427 -3 36 21 77 41 91 45 14 4 39 17 55 30 17 12 68
40 115 62 73 34 96 51 166 126 124 133 129 170 47 376 l-46 116 -8 170 c-6
148 -11 184 -39 278 -17 60 -29 112 -25 115 3 4 34 -3 68 -15 221 -77 489
-108 927 -106 234 0 269 3 420 29 150 26 188 29 410 30 135 1 253 2 263 2 43
4 73 54 122 207 26 83 61 177 78 210 16 33 35 83 41 110 12 48 14 51 57 62 24
6 66 12 93 12 l48 1 -6 -48 c-3 -26 -10 -150 -15 -277 -5 -126 -14 -264 -19
-305 -19 -129 -32 -355 -37 -630 -5 -265 -19 -422 -56 -640 -23 -134 -38 -170
-40 -97 -1 26 -2 50 -3 55 -1 4 -6 55 -10 114 -6 81 -12 108 -22 108 -17 0
-18 -69 -3 -180 13 -103 15 -298 2 -311 -7 -7 -13 11 -17 58 -11 99 -38 175
-57 156 -5 -5 -1 -35 8 -68 19 -67 21 -311 3 -329 -5 -5 -10 -17 -10 -26 0 -9
-11 -22 -25 -28 -24 -11 -25 -10 -15 7 12 24 13 61 1 61 -5 0 -14 -7 -21 -15
-7 -8 -9 -15 -5 -15 5 0 1 -8 -7 -17 -9 -10 -16 -29 -16 -43 0 -14 -9 -45 -20
-68 -16 -33 -19 -54 -15 -96 6 -63 -2 -109 -20 -103 -6 2 -12 14 -12 27 0 13
-5 25 -10 27 -15 5 -46 -68 -35 -82 23 -28 23 -245 0 -245 -9 0 -35 75 -44
130 -12 70 -49 200 -58 200 -4 0 -8 -27 -8 -60 0 -74 -26 -150 -75 -225 -37
-54 -40 -73 -12 -62 18 7 97 158 97 185 0 40 18 32 25 -10 4 -24 16 -77 27
-118 23 -83 20 -176 -7 -217 -18 -26 -84 -63 -116 -63 -16 0 -20 -4 -14 -17
32 -82 49 -183 32 -199 -11 -12 -26 9 -45 62 -10 28 -24 49 -32 49 -19 0 -15
-26 16 -94 13 -29 24 -65 24 -79 0 -26 -117 -252 -131 -252 -5 0 -11 12 -14
28 -19 87 -29 109 -46 105 -23 -6 -58 30 -66 67 -3 17 -12 30 -19 30 -18 0
-18 -6 6 -94 15 -52 20 -97 18 -148 l-3 -73 -22 95 c-13 52 -28 119 -35 148
-8 40 -16 52 -30 52 -22 0 -22 -8 -4 -57 27 -73 69 -267 68 -318 0 -57 -16
-124 -39 -169 -18 -34 -26 -26 -42 40 -5 21 -22 93 -39 159 -16 66 -33 137
-37 158 -3 21 -10 35 -16 32 -12 -8 -12 -60 0 -99 6 -17 22 -78 36 -136 14
-58 33 -127 42 -154 13 -40 13 -55 3 -90 -20 -69 -80 -182 -111 -212 l-31 -29
6 25 c20 96 29 193 35 385 4 121 6 221 6 223 -1 1 -10 0 -19 -4 -14 -5 -16
-28 -16 -182 0 -166 -16 -342 -31 -342 -3 0 -9 12 -12 28 -10 51 -46 122 -62
122 -18 0 -18 -1 -4 -37 18 -46 28 -127 18 -140 -7 -7 -3 -32 11 -72 24 -72
17 -99 -32 -128 -28 -17 -33 -26 -36 -62 -1 -24 -14 -66 -29 -94 -24 -49 -26
-50 -34 -28 -5 13 -14 55 -20 95 -6 39 -19 82 -29 95 -16 23 -16 28 10 130 36
139 47 241 27 241 -10 0 -17 -17 -22 -58 -12 -102 -36 -189 -61 -223 -36 -50
-28 -99 17 -99 14 0 19 -11 24 -47 3 -27 13 -77 22 -113 10 -36 16 -74 14 -84
-1 -11 -21 -43 -42 -73 -22 -29 -39 -55 -39 -58 0 -17 -1 -18 -11 -8 -6 6 -18
41 -28 79 -9 37 -22 69 -29 72 -16 5 -15 -11 3 -78 11 -41 11 -56 3 -61 -9 -6
-9 -14 1 -32 12 -23 9 -29 -44 -98 -60 -77 -95 -138 -95 -164 0 -23 -24 -18
-35 7 -11 25 -42 32 -36 8 11 -43 12 -70 1 -109 l-11 -43 -23 21 c-23 22 -46
28 -46 12 0 -6 5 -13 10 -16 6 -4 8 -11 5 -16 -3 -5 1 -6 9 -3 30 12 17 -33
-41 -140 -59 -108 -81 -132 -69 -73 4 17 11 77 16 132 5 55 12 129 16 164 6
52 5 63 -7 59 -10 -3 -19 -56 -35 -204 -22 -203 -33 -260 -59 -304 l-15 -25
-6 24 c-14 48 -121 231 -136 231 -18 0 -6 -33 34 -96 22 -36 51 -91 64 -122
24 -61 20 -85 -23 -124 -19 -17 -20 -16 -37 40 -21 67 -62 158 -75 167 -23 14
-18 -19 14 -88 19 -42 40 -99 47 -127 l12 -51 -35 -35 -35 -34 4 71 c4 57 2
71 -9 67 -10 -3 -16 -29 -20 -79 -3 -41 -12 -93 -20 -117 l-14 -43 -10 102
c-7 68 -14 104 -23 107 -11 3 -12 -17 -6 -104 l6 -109 -47 -43 c-36 -33 -50
-40 -56 -30 -6 9 -9 4 -9 -14 0 -15 -4 -29 -8 -32 -4 -2 -8 46 -8 107 1 145
-21 267 -47 267 -15 0 -18 -5 -14 -22 31 -125 40 -216 29 -292 -15 -99 -40
-138 -140 -214 -105 -81 -112 -85 -118 -79 -13 12 -5 124 11 167 23 62 33 204
14 198 -10 -3 -16 -31 -22 -88 -8 -86 -22 -123 -31 -79 -2 13 -10 69 -16 124
-15 127 -19 145 -36 145 -8 0 -14 -5 -14 -11 0 -11 21 -144 40 -250 14 -77 13
-89 -11 -148 -21 -49 -35 -64 -36 -38 -10 152 -18 198 -35 217 -19 20 -48 27
-48 12 0 -5 8 -17 19 -26 13 -12 20 -37 25 -84 4 -37 9 -86 12 -110 4 -23 3
-57 0 -75 -6 -31 -48 -87 -66 -87 -5 0 -8 106 -7 243 2 240 -3 304 -24 291 -8
-4 -9 -37 -4 -100 8 -109 7 -191 -3 -333 l-7 -105 -60 -18 c-33 -10 -65 -18
-71 -18 -6 0 2 26 18 58 48 97 86 322 54 322 -9 0 -15 -22 -20 -75 -7 -77 -41
-197 -75 -263 -19 -37 -61 -83 -61 -67 0 8 43 143 94 297 l23 66 -22 -16 c-16
-12 -37 -64 -75 -182 -29 -91 -58 -170 -65 -175 -18 -15 -283 -80 -291 -72 -3
3 26 53 65 111 43 65 78 130 90 169 11 36 38 100 60 143 23 43 42 90 44 104 3
36 -26 32 -33 -5 -4 -16 -23 -61 -43 -100 -19 -38 -47 -103 -62 -143 -15 -40
-50 -105 -78 -144 -52 -72 -77 -93 -77 -64 0 8 -8 30 -19 49 -17 30 -17 38 -5
103 8 38 31 127 51 197 34 117 41 130 68 144 74 38 164 106 169 128 10 39 -5
163 -20 169 -21 8 -24 -6 -13 -78 11 -82 6 -93 -63 -137 -29 -18 -73 -50 -98
-72 -39 -34 -46 -47 -65 -120 -28 -108 -44 -140 -75 -147 -25 -6 -25 -7 -3
-14 18 -6 20 -11 13 -29 -4 -12 -13 -38 -19 -57 -6 -19 -9 -24 -7 -11 3 13 -6
62 -20 108 -14 47 -22 94 -19 104 4 13 1 19 -8 19 -26 0 -30 30 -35 233 -3
159 -7 197 -18 197 -11 0 -14 -30 -14 -157 0 -219 15 -346 62 -522 22 -81 19
-130 -9 -180 -21 -37 -27 -37 -95 -10 -29 12 -91 34 -137 51 -88 31 -126 53
-136 78 -3 8 -12 89 -20 180 -8 91 -19 194 -25 230 -6 36 -12 76 -14 90 -1 14
-11 27 -20 28 -13 3 -16 -1 -12 -15 17 -56 56 -391 56 -486 l0 -28 -38 21
c-20 11 -55 36 -77 54 -38 32 -39 35 -24 52 57 65 83 249 52 358 -11 37 -25
-12 -19 -62 9 -63 -10 -198 -31 -235 -29 -48 -47 -55 -89 -32 -58 31 -67 60
-61 199 2 67 9 133 15 147 6 15 14 59 18 98 6 62 4 71 -10 71 -11 0 -16 -9
-16 -29 0 -16 -7 -64 -16 -107 -9 -42 -19 -126 -23 -186 l-6 -109 -55 33 c-48
29 -55 37 -54 63 1 17 7 97 14 180 6 82 12 305 13 495 1 361 1 359 -47 529
-16 55 -31 80 -41 69 -6 -5 7 -97 25 -188 33 -159 35 -843 4 -1048 -3 -17 -10
-32 -17 -32 -16 1 -147 110 -161 134 -8 14 -8 20 1 23 28 10 34 76 13 154 -11
41 -31 126 -45 189 -41 183 -42 186 -79 208 -36 22 -37 22 -21 110 6 39 5 43
-11 40 -16 -3 -19 -13 -19 -61 0 -75 -16 -55 -39 50 -10 43 -44 144 -77 225
-32 80 -59 153 -59 161 0 18 -26 41 -34 29 -6 -9 44 -156 90 -264 42 -99 96
-308 91 -348 -6 -44 -87 -217 -116 -247 -12 -13 -29 -23 -39 -23 -22 1 -158
93 -218 149 l-47 44 12 62 c6 34 11 111 11 171 l0 109 40 -80 c55 -113 134
-206 160 -190 14 8 13 122 -1 131 -20 12 -29 -11 -19 -46 5 -18 8 -35 6 -37
-18 -19 -113 123 -160 240 -24 61 -26 71 -15 107 14 47 9 56 -20 38 -18 -11
-23 -10 -35 7 -9 11 -16 27 -16 36 0 9 -3 19 -7 23 -20 19 -107 299 -219 699
-3 9 -11 17 -18 17 -11 0 -10 -15 4 -72 40 -169 135 -480 182 -597 28 -69 59
-148 70 -175 17 -44 19 -70 16 -222 -2 -95 -6 -176 -10 -179 -4 -4 -69 44
-145 108 l-138 115 6 94 c6 99 5 108 -15 108 -11 0 -12 -20 -8 -90 2 -50 2
-90 -2 -90 -4 0 -27 14 -51 31 -37 27 -45 38 -49 73 -16 131 -21 189 -21 254
0 64 -2 72 -19 72 -18 0 -19 -6 -12 -88 4 -48 10 -122 13 -164 3 -44 2 -78 -3
-78 -5 0 -28 15 -51 33 -22 17 -54 39 -71 48 -36 20 -39 37 -48 222 -4 88 -11
148 -20 165 -8 15 -14 43 -14 62 0 19 -7 104 -16 190 -15 142 -25 183 -39 168
-5 -5 14 -254 35 -458 5 -52 11 -138 13 -191 l4 -95 -27 25 c-15 14 -55 59
-89 100 -56 67 -61 77 -61 121 0 29 5 50 13 53 21 8 11 277 -11 291 -12 7 -13
-414 0 -438 6 -11 48 -60 94 -107 62 -64 84 -93 84 -113 0 -20 -5 -26 -22 -26
-42 0 -52 -15 -24 -33 37 -25 56 -21 67 13 14 37 31 38 78 2 20 -16 53 -39 74
-51 l37 -23 0 -106 c0 -89 -3 -112 -20 -140 -11 -17 -24 -32 -28 -32 -5 0 -22
15 -38 33 -25 27 -29 29 -32 14 -4 -22 44 -77 68 -77 21 0 55 37 69 73 6 16
11 66 11 112 0 46 4 87 10 90 5 3 29 -12 52 -33 l42 -40 0 -88 c0 -89 -10
-121 -56 -186 -15 -20 -5 -33 17 -24 28 10 58 96 63 179 3 42 9 80 14 83 6 4
35 -18 66 -48 32 -31 82 -72 114 -92 69 -45 78 -64 44 -91 -27 -22 -34 -45
-14 -45 7 0 24 12 39 26 l26 25 29 -34 c16 -19 65 -58 109 -87 44 -29 89 -62
100 -74 11 -12 46 -39 79 -61 32 -22 70 -48 85 -58 14 -10 32 -21 39 -26 20
-12 26 -186 12 -347 -10 -119 -14 -141 -32 -155 -17 -13 -19 -21 -11 -59 9
-48 26 -61 42 -32 16 30 30 203 32 390 1 94 4 172 7 172 3 0 21 -10 39 -23 41
-28 46 -51 42 -201 -4 -110 -2 -121 14 -124 17 -3 18 4 11 116 -9 156 -5 166
44 121 20 -20 61 -53 89 -74 l53 -39 -6 -85 c-3 -48 -8 -92 -10 -100 -5 -17
14 -41 32 -41 20 0 29 48 16 84 -6 17 -9 48 -5 69 7 47 34 50 88 7 53 -42 61
-57 68 -124 6 -60 32 -105 50 -87 7 7 5 18 -5 33 -23 36 -31 88 -13 88 8 0 23
-8 33 -17 9 -10 64 -48 122 -85 58 -37 110 -72 116 -77 6 -5 16 -36 23 -70 8
-41 17 -61 27 -61 17 0 17 12 3 63 -6 22 -8 41 -6 43 3 3 33 -8 68 -25 121
-56 202 -81 262 -81 50 0 57 2 57 19 0 21 17 37 28 27 3 -4 1 -16 -6 -26 -12
-19 -9 -20 70 -19 46 0 88 5 93 9 13 11 165 55 220 64 l40 7 -32 -31 c-40 -36
-42 -50 -5 -49 21 0 38 14 73 57 42 51 54 60 116 80 87 28 93 28 93 -3 0 -32
-21 -74 -49 -99 -29 -27 -26 -36 12 -36 29 0 37 6 57 42 13 24 36 59 52 79 15
20 28 44 28 52 0 9 5 19 10 22 6 4 10 -30 10 -94 0 -83 3 -101 15 -101 12 0
15 18 15 103 0 102 0 104 30 132 16 16 31 27 33 24 3 -2 12 -45 22 -95 13 -69
14 -100 7 -127 -9 -33 -8 -37 8 -37 27 0 33 46 20 137 -23 146 -24 137 33 189
29 26 76 60 105 76 28 17 56 37 61 46 19 33 21 4 5 -58 -9 -34 -31 -91 -50
-125 -36 -66 -41 -85 -21 -85 20 0 84 132 106 219 11 45 28 97 36 115 14 30
124 156 136 156 9 0 -11 -154 -24 -184 -6 -16 -31 -70 -54 -119 -46 -95 -50
-107 -30 -107 11 1 88 156 102 208 10 35 15 23 24 -64 7 -56 14 -82 27 -91 30
-22 40 1 21 43 -22 44 -40 170 -29 205 4 14 31 46 61 70 29 24 60 58 70 74 9
17 17 32 19 35 2 2 7 -2 12 -10 14 -22 12 -67 -2 -73 -8 -3 -7 -6 4 -6 9 -1
18 -11 20 -23 2 -13 11 -24 21 -26 23 -5 22 24 -3 88 -24 62 -25 91 -3 133 9
18 19 46 23 62 7 28 10 25 52 -65 25 -52 48 -103 51 -113 8 -21 27 -14 27 10
0 15 -8 32 -75 165 l-29 57 24 68 c25 73 44 111 118 242 49 85 72 109 72 74 1
-10 9 -36 20 -58 11 -22 19 -48 20 -57 0 -9 4 -20 10 -23 10 -6 -95 -170 -124
-195 -21 -17 -20 -30 2 -30 9 0 35 25 57 56 22 31 58 79 79 107 l39 50 54
-106 c29 -59 58 -107 63 -107 22 0 21 32 -2 63 -34 44 -91 157 -79 157 12 0
41 29 41 41 0 17 -29 9 -41 -12 -7 -15 -14 -18 -21 -11 -8 8 -6 21 5 44 47
100 109 277 121 350 8 46 19 95 25 110 5 14 7 29 3 34 -4 4 -1 4 5 0 28 -16
233 -368 233 -400 0 -7 7 -21 15 -32 13 -16 16 -17 25 -4 12 18 4 46 -25 85
-12 17 -33 50 -46 75 -37 72 -88 160 -136 233 -49 76 -50 86 -10 156 l24 42
11 -28 c5 -15 31 -95 58 -178 26 -82 52 -155 57 -162 5 -7 6 -17 2 -24 -5 -7
-1 -10 10 -7 38 7 40 33 5 89 -41 67 -99 235 -106 309 -6 54 -5 56 60 154 64
98 80 152 25 85 -16 -19 -29 -30 -29 -26 0 16 31 67 41 67 5 0 14 10 19 23 8
20 9 19 9 -10 1 -17 6 -35 12 -38 5 -4 8 -12 6 -18 -2 -6 9 -45 24 -85 22 -59
25 -78 17 -92 -9 -14 -9 -22 1 -34 18 -21 24 -20 63 7 l33 22 -11 70 c-6 39
-23 107 -38 152 l-27 82 27 48 c15 26 47 84 71 128 24 44 47 83 51 87 10 11
-4 -472 -16 -508 -5 -17 -11 -85 -12 -150 -1 -65 -6 -150 -11 -189 -5 -38 -13
-119 -18 -180 -6 -60 -15 -157 -20 -215 -23 -237 -8 -525 35 -695 45 -177 223
-575 257 -575 9 0 17 1 17 3 0 1 -31 66 -70 144 -38 78 -82 179 -99 225 -16
46 -39 108 -51 138 -12 30 -31 104 -43 165 -31 155 -30 535 3 805 12 102 25
271 30 375 5 105 13 214 19 244 6 29 11 127 11 217 0 89 4 165 9 169 5 3 22 0
36 -7 40 -18 55 8 55 95 0 79 11 107 44 107 22 0 22 1 14 68 -5 37 -5 78 -2
92 12 45 43 -144 43 -265 0 -92 -4 -127 -29 -213 -36 -131 -63 -185 -108 -222
-36 -29 -36 -30 -11 -30 56 0 112 100 154 274 33 134 34 288 4 420 -20 86 -21
95 -6 122 9 16 20 38 23 48 4 11 31 66 60 123 l53 102 10 -32 c6 -18 22 -103
36 -189 24 -145 25 -162 12 -205 -22 -74 -46 -126 -69 -150 -24 -25 -20 -38 9
-29 22 7 67 98 84 169 11 45 8 124 -7 204 -6 30 -4 33 18 33 35 0 48 18 48 68
0 56 -27 176 -51 226 -26 54 -24 73 10 106 19 17 34 45 42 76 15 65 58 192 76
228 13 26 16 27 25 12 5 -9 8 -29 6 -44 l-4 -27 -11 25 c-9 21 -11 12 -10 -50
0 -41 -8 -110 -17 -153 -12 -53 -15 -82 -8 -89 6 -6 12 -6 16 0 9 16 36 163
36 202 0 26 3 31 10 20 5 -8 10 -31 10 -51 0 -41 25 -73 36 -45 3 8 -1 22 -10
31 -24 24 -17 317 10 399 l19 59 29 -86 c16 -47 31 -111 35 -143 7 -70 31 -87
31 -22 0 57 -35 192 -59 232 -17 27 -18 34 -6 56 8 14 14 34 15 44 0 18 50
240 87 386 9 36 22 110 29 165 7 55 19 133 28 173 9 40 16 86 16 102 0 16 4
31 8 34 15 9 12 -253 -3 -298 -8 -22 -15 -69 -15 -104 0 -44 -6 -75 -21 -103
-11 -23 -18 -43 -15 -46 12 -13 35 8 41 39 4 18 10 37 13 43 7 11 32 -79 32
-116 0 -26 24 -47 35 -30 2 5 -7 55 -22 112 -25 99 -26 107 -15 214 8 78 9
155 1 265 -6 106 -6 191 1 269 6 62 15 245 20 405 10 302 22 487 39 616 6 41
11 129 11 195 0 142 18 345 31 361 5 6 27 14 48 17 59 8 108 35 114 63 2 13
-1 62 -6 108 -9 71 -8 96 7 163 19 81 18 192 -1 318 l-8 50 -55 5 -55 5 -6
200 c-8 230 -38 547 -75 782 -20 132 -37 196 -88 346 -83 239 -128 353 -184
457 -53 101 -57 107 -186 278 -56 74 -126 173 -156 220 -73 115 -329 432 -349
432 -16 0 -138 120 -183 179 -72 96 -307 334 -370 374 -29 19 -62 44 -73 57
-19 21 -176 117 -320 195 -38 21 -116 68 -172 106 -55 37 -127 81 -160 97 -32
16 -143 72 -248 124 -181 91 -341 160 -395 172 -14 3 -101 23 -195 45 -287 68
-385 81 -579 80 -94 -1 -189 -5 -211 -9z m2566 -3854 c97 -14 224 -45 374 -92
44 -13 103 -31 130 -38 28 -8 95 -30 150 -49 73 -25 126 -37 195 -42 137 -10
240 -30 289 -54 32 -17 151 -40 210 -41 7 0 -8 -351 -18 -430 -5 -41 -13 -105
-16 -141 l-6 -65 -92 -10 c-51 -6 -101 -14 -111 -19 -17 -7 -18 -5 -13 18 32
125 26 361 -13 471 -20 60 -74 135 -116 162 -32 22 -164 70 -254 94 -89 23
-254 76 -279 90 -30 16 -195 31 -466 42 -347 14 -335 14 -455 -1 -58 -7 -229
-16 -380 -21 -151 -5 -294 -13 -317 -18 -63 -14 -122 -54 -187 -128 -88 -99
-98 -148 -71 -354 13 -96 20 -123 52 -179 20 -36 57 -104 82 -151 26 -47 82
-127 126 -178 44 -51 102 -118 128 -150 165 -194 249 -269 329 -293 18 -5 89
-17 158 -25 68 -8 126 -17 129 -20 9 -9 -253 6 -375 22 -61 7 -137 20 -170 28
-135 34 -220 59 -232 69 -30 23 -82 140 -112 247 -39 142 -81 262 -114 326
-13 27 -52 105 -86 174 -34 69 -69 133 -77 143 -19 20 -131 57 -176 57 -17 0
-60 -5 -96 -11 -59 -11 -71 -17 -124 -68 -33 -31 -84 -69 -116 -86 -54 -29
-67 -47 -38 -53 12 -3 55 13 100 36 22 11 2 -42 -32 -84 -21 -27 -46 -63 -54
-81 -9 -17 -38 -49 -63 -70 -99 -81 -109 -95 -144 -193 -29 -82 -42 -103 -89
-151 -55 -54 -99 -80 -245 -141 -108 -45 -177 -68 -202 -68 -13 0 -68 -11
-121 -25 -93 -25 -324 -51 -374 -43 -21 3 89 27 191 42 296 42 361 56 430 91
60 31 65 38 151 203 52 101 92 164 137 215 129 146 212 381 212 598 0 117 -11
145 -75 195 -20 16 -43 41 -51 57 -10 19 -22 27 -42 27 -15 0 -74 16 -132 35
-58 20 -127 42 -155 50 -91 25 -106 34 -50 29 111 -10 641 -21 808 -16 134 3
211 0 312 -13 106 -14 175 -16 332 -12 109 4 212 8 228 11 17 3 91 10 165 16
154 11 313 35 342 51 36 19 248 38 368 33 63 -2 158 -11 211 -18z m24 -145
c283 -10 334 -17 458 -63 45 -16 135 -45 200 -63 210 -59 244 -74 293 -128 30
-34 50 -68 63 -112 27 -87 43 -240 32 -306 -5 -30 -15 -103 -21 -164 -9 -81
-21 -132 -46 -194 -62 -155 -93 -182 -254 -224 -263 -70 -363 -98 -388 -111
-46 -23 -207 -45 -432 -57 -348 -19 -611 1 -701 55 -37 22 -198 186 -259 266
-19 24 -73 88 -120 141 -86 97 -193 273 -233 383 -20 54 -35 257 -23 318 9 47
57 106 133 163 90 67 154 79 418 81 202 1 440 16 453 29 4 4 43 4 87 1 44 -3
197 -10 340 -15z m1434 -171 c10 0 31 -147 31 -212 0 -26 -7 -73 -15 -105 -17
-64 -19 -158 -5 -218 17 -74 -4 -98 -95 -107 l-30 -3 3 75 c2 41 8 94 13 117
5 23 12 134 16 247 6 198 7 205 27 209 12 2 27 3 34 1 8 -2 17 -4 21 -4z
m-3164 -320 c47 -18 74 -49 114 -130 20 -41 69 -133 108 -205 51 -93 83 -168
113 -265 23 -74 53 -166 67 -205 14 -38 43 -131 65 -205 35 -118 40 -150 43
-255 5 -178 13 -227 52 -318 74 -174 77 -207 21 -280 -76 -100 -195 -193 -270
-211 -14 -3 -40 -17 -55 -30 -16 -14 -85 -52 -153 -85 -151 -75 -180 -77 -320
-27 -52 19 -112 42 -132 50 -21 9 -63 23 -95 31 -53 14 -59 14 -90 -5 -62 -37
-77 -30 -184 83 -54 56 -101 114 -104 128 -7 32 10 109 69 307 87 291 141 531
176 777 27 192 55 308 89 365 15 25 33 61 41 80 7 19 32 67 56 105 39 64 53
101 69 178 6 31 78 114 110 128 26 12 171 4 210 -11z m2651 -772 c-7 -29 -23
-72 -35 -96 -35 -69 -50 -72 -319 -65 l-231 6 43 23 c23 12 71 27 107 34 35 6
93 20 129 31 36 11 90 27 120 35 89 26 133 43 165 63 17 11 31 20 32 20 0 1
-4 -23 -11 -51z m-688 -178 c-50 -15 -148 -23 -148 -11 0 9 48 15 145 18 l30
1 -27 -8z m-280 -37 c-21 -2 -55 -2 -75 0 -21 2 -4 4 37 4 41 0 58 -2 38 -4z
m1109 -1672 c-4 -20 -11 -65 -17 -101 -7 -36 -11 -75 -11 -86 1 -29 -44 -158
-69 -201 -11 -19 -20 -45 -20 -58 0 -13 -4 -26 -9 -29 -13 -8 -24 43 -13 57 6
8 3 39 -9 85 -14 51 -16 78 -10 90 9 15 10 14 11 -6 0 -13 8 -53 17 -90 l17
-67 14 35 c9 24 10 36 3 38 -6 2 -8 14 -5 26 3 12 0 34 -6 50 -13 35 6 80 35
84 27 4 46 65 53 166 3 58 7 74 15 61 5 -9 7 -34 4 -54z m-157 -480 c7 -13 7
-28 0 -46 -6 -15 -17 -57 -26 -95 -8 -37 -21 -76 -29 -86 -12 -16 -13 -2 -8
101 4 93 9 123 21 133 22 17 30 15 42 -7z m-90 -265 c7 -18 4 -39 -11 -78 -10
-29 -16 -39 -12 -23 4 17 7 51 7 78 -1 53 2 58 16 23z m-60 -204 c0 -11 -13
-39 -30 -63 -16 -24 -30 -53 -30 -64 0 -19 0 -19 -13 0 -17 26 -38 96 -31 107
9 14 24 -2 24 -25 0 -12 5 -29 10 -37 8 -13 11 -11 16 8 4 12 10 22 15 22 18
0 8 18 -13 24 -23 6 -22 6 7 25 38 25 45 25 45 3z m-30 -283 c14 -44 24 -99
24 -138 1 -59 -1 -66 -19 -69 -17 -2 -23 10 -44 90 -13 51 -23 103 -23 116 0
30 22 83 32 77 4 -2 18 -37 30 -76z m-312 -146 c17 -33 33 -142 24 -159 -7
-13 -11 -11 -20 13 -12 30 -32 125 -32 148 0 21 17 19 28 -2z m2 -205 c0 -11
-8 -33 -17 -51 l-18 -32 -3 44 c-2 25 0 56 3 70 6 25 7 25 21 7 8 -11 14 -28
14 -38z m23 -150 c-6 -31 -48 -55 -57 -32 -6 17 7 48 32 77 16 17 16 17 23 -1
4 -10 5 -30 2 -44z m-55 -131 c3 -84 -4 -95 -53 -83 -20 5 -25 13 -25 37 0 36
48 131 64 126 6 -2 12 -37 14 -80z m-298 -293 c0 -23 -18 -24 -24 -1 -11 41
-7 54 9 33 8 -11 15 -25 15 -32z m15 -132 c-7 -19 5 -38 15 -22 8 13 36 -63
49 -136 14 -73 -9 -47 -46 52 -18 49 -33 107 -32 129 0 36 1 38 10 16 5 -14 7
-31 4 -39z m-354 -517 c-6 -24 -8 -50 -5 -58 9 -24 -24 -137 -72 -247 -24 -56
-44 -109 -44 -116 0 -24 -17 -15 -28 14 -30 82 -33 107 -22 156 6 27 17 61 25
75 7 14 25 51 38 81 14 30 36 67 49 82 12 14 32 38 43 53 24 33 31 18 16 -40z
m-201 -290 c0 -14 -4 -25 -10 -25 -11 0 -14 33 -3 43 11 11 13 8 13 -18z
m-3077 -255 c24 -102 31 -183 16 -178 -13 4 -57 188 -58 243 -1 49 25 10 42
-65z m-35 -167 c-6 -7 -17 -13 -25 -13 -12 0 -14 -16 -11 -89 3 -102 11 -99
-90 -34 l-54 35 30 31 c26 27 73 115 114 217 10 22 12 17 29 -55 12 -56 15
-83 7 -92z m41 -71 c16 -78 14 -89 -15 -96 -30 -8 -27 -28 6 -36 15 -4 26 -16
31 -33 9 -34 -3 -34 -42 1 -29 26 -30 31 -32 112 -2 64 2 90 13 102 20 21 26
14 39 -50z m2796 41 c-12 -51 -48 -114 -57 -101 -14 23 -9 44 22 86 35 49 45
53 35 15z m-2713 -127 c12 -53 5 -106 -12 -106 -6 0 -10 26 -10 58 0 31 -4 73
-9 92 -5 19 -12 49 -15 65 -9 53 34 -49 46 -109z m2641 -15 c-4 -69 -123 -181
-123 -115 0 38 91 159 114 151 6 -2 10 -18 9 -36z m-659 -499 c-31 -27 -44
-16 -26 21 5 12 15 36 22 52 l13 30 10 -39 c9 -37 8 -41 -19 -64z m-796 -204
c-5 -10 -13 -18 -18 -18 -6 0 -13 0 -17 0 -11 0 -13 37 -6 84 l5 39 23 -44
c16 -31 20 -49 13 -61z m660 71 c-19 -25 -24 -28 -27 -13 -2 10 5 24 15 31 30
22 36 14 12 -18z"/>
<path d="M4505 7519 c-27 -5 -81 -14 -120 -20 -163 -26 -342 -94 -388 -148
-12 -14 -35 -34 -50 -44 -31 -20 -28 -37 9 -37 23 0 40 13 74 57 55 71 299
148 525 167 110 9 304 -8 357 -32 63 -28 172 -125 193 -171 18 -40 38 -56 56
-45 18 11 5 31 -65 109 -70 78 -114 112 -176 134 -73 27 -333 46 -415 30z"/>
<path d="M4200 7244 c-89 -30 -97 -36 -75 -58 11 -10 15 -25 11 -39 -7 -27
-94 -86 -162 -108 -66 -22 -133 -56 -161 -82 -27 -24 -30 -69 -6 -92 21 -21
98 -55 124 -55 11 0 60 -16 110 -35 119 -46 280 -72 298 -48 3 4 28 9 55 11
29 1 58 9 68 19 12 11 21 13 30 5 14 -11 132 25 230 71 29 13 96 39 149 56
120 39 144 62 137 125 -17 145 -127 226 -308 226 -37 0 -104 7 -147 15 -122
23 -262 19 -353 -11z m305 -14 c18 -8 18 -9 -5 -10 -40 -3 -101 1 -160 9 -50
8 -46 9 45 9 55 0 109 -3 120 -8z m-255 -32 c0 -14 -63 -68 -79 -68 -25 0 1
45 37 64 34 19 42 19 42 4z m613 -17 c46 -28 82 -74 102 -131 27 -76 11 -91
-147 -145 -121 -41 -133 -43 -117 -17 19 30 -44 195 -94 250 -22 23 -48 42
-58 42 -27 0 -24 18 4 22 12 2 78 3 147 3 113 0 129 -3 163 -24z m-744 -147
c-31 -61 -31 -76 2 -152 21 -50 71 -99 111 -107 15 -4 31 -11 34 -17 15 -24
-105 3 -188 42 -47 22 -97 40 -111 40 -35 0 -138 41 -144 57 -10 26 39 62 132
98 51 20 110 49 132 65 57 43 64 37 32 -26z"/>
<path d="M5178 6683 c-6 -57 -93 -92 -290 -118 -68 -9 -175 -30 -238 -48 -98
-26 -132 -31 -230 -31 -100 0 -125 4 -190 27 -41 15 -104 45 -140 66 -167 98
-195 109 -188 74 2 -10 32 -33 68 -51 275 -142 293 -148 460 -146 83 2 136 8
185 22 76 22 241 52 287 52 60 0 184 33 250 66 56 28 68 39 68 58 0 56 -36 80
-42 29z"/>
<path d="M4602 1631 c1 -29 -29 -81 -65 -113 -16 -15 -17 -20 -7 -33 21 -26
22 -25 67 65 23 46 31 110 14 110 -5 0 -9 -13 -9 -29z"/>
<path d="M18710 9717 c0 -14 13 -59 29 -99 16 -40 47 -131 70 -203 85 -263
175 -358 405 -429 63 -20 146 -50 183 -67 199 -91 519 -218 565 -225 30 -5 38
-3 38 8 0 10 -14 18 -40 22 -22 3 -93 29 -158 57 -214 93 -505 210 -571 231
-98 30 -179 76 -241 138 -82 83 -88 95 -235 508 -27 76 -45 99 -45 59z"/>
<path d="M670 9614 c-19 -3 -100 -8 -179 -12 -120 -6 -146 -10 -155 -24 -14
-23 -2 -32 23 -18 30 15 395 35 631 34 281 -2 1068 -22 1115 -29 22 -4 86 -13
142 -21 56 -8 113 -18 125 -23 32 -12 200 -29 413 -41 219 -13 403 -40 539
-79 137 -41 206 -45 364 -27 343 41 962 3 1181 -71 25 -8 82 -18 127 -23 99
-9 110 -15 224 -126 47 -46 102 -90 122 -99 42 -17 98 -20 98 -5 0 12 -6 14
-65 29 -40 11 -66 31 -141 112 -23 24 -67 62 -98 83 -50 34 -64 39 -108 37
-30 -1 -101 11 -172 30 -67 17 -161 35 -211 40 -49 5 -128 13 -175 19 -115 13
-706 13 -855 -1 l-120 -11 -180 45 c-99 25 -216 48 -260 51 -44 4 -192 16
-330 26 -137 11 -270 25 -295 30 -156 34 -277 50 -440 59 -191 11 -1258 22
-1320 15z"/>
<path d="M1040 9315 c-168 -44 -297 -98 -410 -170 -48 -30 -305 -145 -326
-145 -15 0 -24 -23 -24 -60 0 -42 17 -46 24 -5 5 23 14 36 29 41 12 3 36 12
52 19 94 41 174 75 178 75 2 0 56 29 118 65 136 78 222 113 389 155 125 31
126 31 330 27 311 -7 601 -39 795 -88 111 -28 191 -61 272 -112 70 -45 142
-76 225 -97 66 -17 569 -19 718 -2 189 21 330 44 415 67 114 33 523 72 556 54
10 -5 41 -9 69 -9 28 0 70 -4 93 -9 23 -5 78 -14 122 -21 172 -25 335 -95 430
-186 90 -85 224 -172 245 -159 18 11 10 23 -28 43 -55 29 -138 90 -202 150
-31 28 -60 52 -65 52 -4 0 -29 13 -54 28 -86 53 -228 97 -366 113 -225 26
-282 29 -395 24 -168 -8 -284 -22 -410 -51 -147 -33 -255 -51 -400 -64 -69 -6
-164 -16 -212 -22 -48 -6 -122 -8 -165 -4 -43 3 -141 10 -218 15 -155 11 -237
34 -330 96 -50 33 -106 60 -180 88 -85 32 -319 78 -471 92 -87 8 -195 20 -239
25 -44 6 -161 10 -260 9 -171 0 -186 -2 -305 -34z"/>
<path d="M948 9163 c-10 -2 -18 -11 -18 -20 0 -13 7 -14 43 -8 91 17 207 5
367 -38 118 -32 256 -56 380 -68 238 -21 306 -31 383 -55 92 -29 189 -69 227
-94 14 -9 58 -30 98 -45 40 -16 75 -32 78 -37 7 -11 51 -10 58 1 3 4 -14 16
-37 26 -23 10 -98 45 -166 77 -187 89 -317 125 -519 143 -197 18 -370 46 -502
82 -52 14 -124 29 -160 34 -69 8 -203 10 -232 2z"/>
<path d="M970 9029 c-19 -4 -69 -12 -110 -18 -111 -15 -362 -124 -448 -193
-22 -18 -55 -45 -74 -59 -44 -34 -75 -100 -81 -171 -5 -51 -3 -58 12 -58 15 0
18 10 20 53 3 90 28 135 94 168 22 12 54 34 71 50 17 16 56 41 86 55 30 14 71
35 91 45 99 52 206 83 324 96 28 2 54 9 60 14 16 16 -8 26 -45 18z"/>
<path d="M4010 8870 c-144 -17 -298 -43 -355 -60 -160 -50 -202 -60 -244 -60
-80 -1 -154 -20 -139 -36 12 -11 218 19 338 51 215 56 333 74 530 82 154 6
231 -2 475 -52 321 -66 388 -84 455 -123 50 -30 68 -48 92 -92 16 -30 38 -64
48 -74 17 -18 20 -18 26 -3 8 21 -55 126 -101 166 -54 47 -111 67 -330 116
-395 89 -583 109 -795 85z"/>
<path d="M895 8616 c-16 -7 -47 -25 -68 -39 -21 -14 -52 -29 -70 -32 -54 -12
-175 -65 -181 -80 -8 -22 11 -27 37 -10 13 8 70 31 126 49 57 19 113 43 125
54 33 31 90 42 216 42 121 0 264 -27 360 -69 25 -10 60 -25 78 -31 57 -22 110
-67 166 -143 62 -84 151 -169 207 -197 46 -24 49 -24 49 -6 0 8 -19 25 -42 39
-47 27 -120 102 -210 213 -51 64 -67 76 -155 119 -149 73 -291 105 -468 104
-93 0 -150 -4 -170 -13z"/>
<path d="M4745 8380 c-16 -5 -69 -14 -117 -20 -76 -10 -107 -21 -230 -82 -143
-70 -278 -152 -278 -169 0 -13 37 -11 63 2 12 7 36 24 54 39 38 33 233 130
323 161 36 12 101 26 145 31 44 4 101 11 127 14 64 8 141 -19 199 -68 25 -22
90 -89 144 -149 95 -104 125 -127 125 -94 0 33 -280 310 -330 326 -47 15 -187
20 -225 9z"/>
<path d="M1036 7713 c-199 -51 -496 -194 -496 -238 0 -28 22 -27 53 3 45 42
231 132 367 178 112 38 119 39 280 42 128 3 180 0 227 -12 86 -22 258 -117
318 -175 28 -26 65 -58 83 -70 40 -28 127 -136 170 -212 32 -56 58 -78 73 -62
4 4 -9 33 -29 63 -20 31 -52 79 -70 108 -18 28 -54 69 -79 89 -25 21 -78 68
-117 104 -52 49 -97 79 -168 113 -152 73 -166 76 -393 75 -110 -1 -208 -3
-219 -6z"/>
<path d="M1005 7389 c-145 -7 -212 -21 -262 -57 -16 -11 -48 -28 -71 -37 -23
-10 -42 -23 -42 -29 0 -20 64 -133 95 -168 17 -18 51 -59 77 -89 43 -51 53
-58 114 -73 36 -9 98 -16 137 -16 40 1 110 -4 157 -10 47 -6 105 -13 128 -16
24 -2 51 -8 60 -13 58 -30 278 -11 552 48 76 16 85 20 89 42 1 13 -4 37 -13
54 -31 55 -192 148 -296 170 -44 9 -205 84 -290 135 -98 59 -183 70 -435 59z
m111 -28 c-3 -4 -21 -11 -41 -14 -26 -4 -49 -20 -88 -63 -74 -81 -86 -107 -87
-190 0 -77 14 -104 68 -126 27 -11 27 -12 4 -16 -41 -7 -113 39 -164 103 -76
95 -118 158 -118 177 0 47 147 117 268 127 126 12 164 12 158 2z m457 -137
c39 -20 113 -50 163 -65 104 -33 258 -126 268 -161 6 -24 -8 -38 -39 -38 -11
0 -51 -7 -90 -16 -122 -26 -366 -52 -415 -44 -42 7 -31 15 16 11 14 -1 32 11
49 31 25 30 26 36 20 96 -4 35 -18 96 -31 135 -25 73 -28 87 -19 87 3 0 38
-16 78 -36z"/>
<path d="M610 6791 c0 -6 38 -35 84 -66 47 -32 107 -76 135 -100 58 -49 178
-99 282 -117 67 -12 99 -9 299 23 30 5 92 13 137 18 93 10 108 19 158 84 39
51 113 107 142 107 11 0 28 7 39 15 18 13 16 14 -24 15 -58 0 -73 -9 -167
-100 -79 -76 -80 -77 -145 -84 -99 -10 -176 -21 -273 -41 -87 -18 -89 -18
-185 4 -127 28 -200 63 -302 146 -46 37 -97 76 -114 86 -33 20 -66 25 -66 10z"/>
<path d="M2528 4663 c-14 -16 -51 -80 -81 -143 -55 -115 -141 -244 -217 -328
-39 -43 -51 -72 -29 -72 14 0 7 -8 128 151 66 87 111 160 152 244 31 66 67
126 78 133 23 14 28 42 8 42 -7 0 -25 -12 -39 -27z"/>
<path d="M2940 4343 c0 -68 -5 -96 -21 -131 -30 -61 -60 -73 -112 -44 -43 24
-51 24 -41 -1 9 -25 68 -55 97 -50 32 6 81 58 96 102 6 19 11 74 11 122 0 72
-3 89 -15 89 -12 0 -15 -16 -15 -87z"/>
<path d="M2675 4380 c-4 -7 -2 -36 5 -65 12 -50 11 -56 -9 -89 -13 -20 -36
-44 -52 -53 -32 -19 -36 -31 -14 -39 23 -9 71 32 95 82 20 41 21 51 11 102
-12 60 -24 81 -36 62z"/>
<path d="M3360 4373 c0 -5 11 -35 25 -68 13 -33 25 -79 25 -103 0 -59 -34
-151 -70 -186 l-29 -30 -41 19 c-42 19 -64 14 -39 -9 23 -22 78 -36 102 -27
53 21 90 97 104 216 l7 60 12 -55 c13 -63 53 -152 82 -183 11 -12 31 -41 44
-64 35 -64 119 -168 155 -193 29 -20 33 -20 60 -6 16 8 34 26 41 40 16 36 34
154 27 177 -7 21 7 26 23 7 20 -26 212 -490 212 -514 0 -29 -15 -137 -38 -263
-19 -113 -44 -151 -98 -151 -23 0 -38 6 -46 20 -7 11 -18 20 -25 20 -24 0 -13
-29 21 -55 28 -22 39 -24 72 -17 27 5 45 17 60 39 22 33 64 195 64 248 0 47
12 105 21 105 5 0 15 -13 24 -30 9 -16 22 -30 30 -30 21 0 19 15 -10 60 -28
45 -84 169 -154 345 -71 176 -100 235 -119 241 -9 3 -24 10 -32 15 -46 29 -54
25 -38 -18 17 -44 -3 -168 -31 -196 l-20 -20 -33 23 c-84 58 -171 205 -263
445 -38 101 -70 145 -106 145 -10 0 -19 -3 -19 -7z"/>
<path d="M2063 4218 c-14 -24 -64 -100 -110 -170 -46 -70 -93 -151 -105 -180
-12 -29 -32 -67 -45 -85 -24 -32 -30 -63 -14 -63 6 0 18 14 28 30 35 60 44 24
17 -70 -17 -61 -37 -137 -64 -252 -17 -72 -40 -129 -112 -286 -15 -35 -26 -68
-23 -73 11 -16 35 -10 35 10 0 10 22 65 49 123 27 57 56 131 65 164 53 201 86
357 86 404 0 77 14 117 63 190 83 125 97 146 121 190 13 25 33 54 45 64 24 22
28 46 6 46 -8 0 -27 -19 -42 -42z"/>
<path d="M2905 3926 c-5 -2 -57 -9 -115 -16 -151 -18 -215 -36 -279 -80 -86
-58 -124 -100 -218 -243 -48 -73 -122 -170 -163 -217 -42 -47 -90 -105 -107
-130 -17 -25 -48 -61 -68 -80 -41 -39 -75 -98 -75 -131 0 -11 8 -33 18 -47 10
-15 45 -121 77 -235 46 -165 71 -235 122 -340 36 -73 89 -206 119 -295 59
-182 105 -281 168 -366 65 -85 184 -167 244 -167 63 1 220 19 232 26 7 5 43
11 79 15 139 15 318 43 356 55 169 57 187 67 242 140 28 38 68 108 89 155 l37
85 -1 174 c-1 118 4 197 14 243 7 38 14 113 14 166 0 133 17 250 54 362 29 90
30 104 33 280 3 262 3 262 -140 390 -137 123 -236 177 -377 208 -133 28 -333
55 -355 48z m220 -51 c22 -3 85 -17 139 -30 143 -35 240 -93 366 -220 93 -93
100 -104 110 -154 5 -29 10 -113 10 -186 0 -117 -3 -144 -30 -236 -38 -132
-60 -276 -60 -396 0 -52 -7 -126 -16 -166 -13 -55 -15 -103 -11 -207 2 -74 1
-161 -4 -194 -18 -109 -135 -300 -200 -326 -19 -7 -63 -25 -99 -41 -36 -15
-92 -30 -125 -34 -33 -3 -103 -13 -155 -20 -377 -56 -427 -61 -471 -43 -79 34
-190 160 -256 293 -25 50 -113 305 -113 328 0 4 -31 69 -68 145 -75 149 -102
223 -139 376 -48 199 -50 211 -42 221 13 14 11 25 -5 25 -21 0 -38 27 -31 49
3 12 24 40 47 63 22 24 55 66 74 95 18 28 37 53 42 55 5 1 37 37 72 78 35 41
67 77 70 80 4 3 20 28 36 55 96 168 170 258 264 320 73 48 95 56 214 70 22 3
42 8 45 11 7 7 278 -2 336 -11z"/>
<path d="M2725 3690 c-4 -6 -15 -8 -26 -5 -11 4 -19 2 -19 -5 0 -7 -16 -9 -47
-6 -40 5 -53 2 -93 -24 -25 -16 -64 -55 -86 -86 -21 -30 -45 -62 -51 -69 -7
-7 -13 -17 -13 -21 0 -4 -11 -21 -24 -38 -13 -17 -26 -40 -30 -52 -3 -11 -14
-29 -24 -40 -10 -10 -38 -46 -62 -78 -25 -33 -80 -95 -122 -139 -43 -43 -78
-86 -78 -94 0 -8 5 -11 13 -7 9 5 9 4 0 -6 -10 -10 7 -31 81 -104 98 -97 179
-189 238 -271 36 -52 98 -163 98 -179 0 -22 78 -162 112 -201 48 -55 130 -85
231 -85 56 0 96 9 204 46 141 47 180 67 275 141 56 44 142 159 159 211 39 128
54 239 34 254 -6 4 -2 8 8 8 15 0 17 14 17 144 0 126 -3 153 -25 220 -14 42
-25 88 -25 103 0 14 -15 58 -34 97 -56 115 -169 212 -223 192 -9 -4 -26 0 -38
8 -12 8 -48 21 -80 30 -31 8 -65 22 -74 30 -20 18 -47 21 -56 6 -3 -5 -19 -2
-38 9 -20 11 -41 15 -57 11 -14 -4 -30 -3 -37 2 -7 5 -14 5 -17 -1 -4 -6 -18
-6 -39 0 -40 11 -44 11 -52 -1z"/>
<path d="M1729 3843 c-1 -5 -2 -21 -4 -38 -3 -51 -72 -326 -100 -400 -15 -38
-37 -90 -51 -114 -26 -47 -32 -84 -11 -75 27 11 109 212 142 349 39 164 57
256 51 271 -6 15 -25 19 -27 7z"/>
<path d="M115 3708 c-4 -13 -26 -403 -29 -502 0 -29 4 -51 10 -53 8 -3 14 34
18 119 4 68 11 159 17 203 12 107 12 245 -1 245 -6 0 -12 -6 -15 -12z"/>
<path d="M3864 3698 c22 -84 47 -231 43 -250 -4 -13 -12 -31 -19 -41 -13 -18
-15 -17 -41 3 -43 34 -47 13 -4 -26 49 -45 71 -35 86 37 18 81 -26 299 -60
299 -7 0 -9 -9 -5 -22z"/>
<path d="M5309 3538 c0 -2 -2 -29 -3 -61 -2 -50 -7 -62 -37 -93 -42 -44 -68
-42 -92 9 -32 65 -52 33 -23 -37 21 -49 42 -58 87 -35 55 28 81 70 88 145 4
36 5 67 2 69 -5 5 -20 7 -22 3z"/>
<path d="M371 3398 c-10 -27 -23 -69 -50 -158 -11 -36 -33 -101 -49 -145 -72
-195 -68 -189 -111 -159 -15 11 -26 13 -33 6 -7 -7 -2 -16 17 -28 18 -12 25
-23 21 -37 -4 -15 -2 -17 7 -8 6 6 20 11 32 11 15 0 25 13 40 53 11 29 26 52
34 52 23 0 117 -132 152 -214 56 -133 51 -249 -15 -302 -20 -16 -20 -18 -3
-24 11 -5 25 -1 39 11 57 51 65 177 19 303 -33 91 -74 155 -137 214 -54 51
-55 66 -13 179 28 76 64 191 76 246 3 13 1 22 -6 22 -6 0 -15 -10 -20 -22z"/>
<path d="M4966 3173 c-8 -55 -32 -135 -53 -176 -25 -49 -23 -24 2 52 29 84 30
91 11 91 -8 0 -20 -26 -31 -65 -23 -85 -80 -204 -101 -212 -12 -4 -23 1 -33
16 -9 12 -28 37 -42 54 -15 18 -34 54 -43 80 -23 67 -43 104 -61 110 -19 8
-20 -16 -1 -46 8 -12 22 -44 32 -72 9 -27 32 -72 52 -99 30 -40 33 -51 24 -67
-10 -15 -8 -22 8 -37 23 -21 25 -17 -73 -142 -26 -34 -45 -65 -41 -71 3 -6 9
-9 14 -7 11 5 126 151 143 184 9 16 44 61 77 99 76 87 102 131 129 219 25 80
28 136 7 136 -9 0 -16 -17 -20 -47z"/>
<path d="M1530 3139 c0 -6 -7 -94 -15 -197 -8 -103 -17 -225 -19 -272 -2 -49
-13 -113 -25 -149 -51 -154 -142 -483 -136 -489 12 -12 33 10 37 40 3 18 17
71 31 118 44 146 125 424 132 455 7 27 8 28 15 10 11 -26 11 -194 1 -365 -6
-97 -5 -137 3 -142 22 -14 40 438 21 520 -5 22 -13 32 -26 32 -13 0 -19 7 -19
23 0 29 18 284 26 365 5 52 3 62 -10 62 -9 0 -16 -5 -16 -11z"/>
<path d="M4234 2989 c4 -13 23 -85 42 -159 48 -189 45 -240 -12 -226 -16 4
-41 10 -55 13 l-26 5 -8 -159 c-4 -87 -9 -211 -11 -277 -1 -67 -7 -123 -13
-129 -16 -16 -13 -57 4 -64 9 -3 19 -2 23 2 8 7 24 317 26 483 1 56 2 102 2
102 1 0 17 -6 35 -14 29 -12 37 -12 61 0 27 14 28 17 27 97 -1 111 -56 340
-83 345 -16 3 -18 0 -12 -19z"/>
<path d="M143 2838 c-10 -11 -11 -38 -4 -110 5 -53 6 -111 1 -130 -21 -88 -50
-118 -50 -52 0 72 -45 164 -80 164 -16 0 -12 -19 10 -42 25 -27 55 -120 47
-142 -4 -10 -18 -16 -37 -16 -39 0 -39 -19 0 -26 38 -8 38 -22 0 -102 -17 -35
-30 -73 -30 -84 0 -19 1 -19 20 4 11 14 33 59 49 99 18 46 37 76 49 80 44 16
60 134 43 308 -5 53 -8 62 -18 49z"/>
<path d="M4535 2470 c-4 -6 -8 -28 -10 -50 -7 -81 -101 -226 -113 -176 -4 18
32 95 62 136 23 29 24 36 11 38 -22 5 -38 -17 -84 -111 l-38 -78 25 -20 c24
-19 26 -19 55 -1 37 21 81 98 102 178 8 32 18 66 21 76 6 20 -20 26 -31 8z"/>
<path d="M850 2444 c0 -4 9 -21 20 -39 11 -17 31 -78 45 -136 23 -95 24 -110
14 -174 -16 -94 -44 -180 -70 -213 -18 -24 -19 -27 -4 -30 25 -5 42 15 65 76
30 81 48 212 38 291 -9 72 -40 175 -64 209 -14 20 -44 31 -44 16z"/>
<path d="M1795 2398 c34 -106 48 -398 23 -481 -7 -22 -27 -55 -45 -73 -35 -36
-42 -54 -19 -54 25 0 75 69 92 128 14 48 16 86 11 244 -3 103 -10 195 -16 205
-5 10 -12 26 -15 36 -3 9 -13 17 -22 17 -12 0 -15 -5 -9 -22z"/>
<path d="M1225 2130 c-3 -5 -1 -18 4 -28 11 -21 60 -221 86 -352 23 -115 29
-133 45 -138 9 -3 11 2 8 19 -3 13 -15 74 -27 134 -58 294 -93 403 -116 365z"/>
<path d="M370 2121 c0 -6 16 -74 35 -153 20 -79 39 -183 42 -231 5 -72 9 -90
25 -98 27 -14 33 11 19 74 -6 29 -18 86 -26 127 -29 145 -70 290 -82 290 -7 0
-13 -4 -13 -9z"/>
<path d="M4264 2063 c4 -21 11 -69 17 -108 20 -150 -19 -304 -84 -328 -26 -10
-16 -32 14 -32 56 0 120 216 99 337 -5 29 -11 79 -15 111 -5 42 -10 57 -22 57
-13 0 -14 -7 -9 -37z"/>
<path d="M2002 2078 c-7 -7 -12 -17 -12 -23 0 -6 -13 -52 -29 -101 -16 -49
-31 -119 -34 -155 -4 -41 -14 -80 -27 -102 -13 -22 -17 -38 -11 -41 17 -11 51
32 51 65 0 17 4 28 10 24 6 -3 10 -18 10 -33 0 -15 11 -85 25 -156 25 -125 25
-137 20 -445 -2 -174 -9 -332 -15 -351 -10 -35 -6 -46 19 -52 12 -2 15 25 20
147 3 83 6 207 6 278 l-1 127 26 0 c23 1 24 2 8 14 -10 7 -18 26 -18 43 0 25
-28 196 -62 378 -23 125 -21 185 10 288 28 93 29 120 4 95z"/>
<path d="M4014 1899 c-4 -7 -7 -32 -5 -56 4 -67 -68 -306 -122 -403 -44 -79
-57 -106 -67 -134 -6 -16 -12 -27 -14 -25 -5 5 12 181 24 244 5 28 12 93 15
145 5 75 3 103 -9 133 -17 38 -36 50 -36 22 0 -9 7 -30 16 -47 13 -26 14 -41
5 -87 -5 -31 -13 -85 -16 -121 -3 -36 -11 -119 -19 -184 -12 -105 -17 -122
-37 -139 -17 -13 -33 -17 -56 -14 -42 7 -43 -10 -3 -53 28 -30 32 -31 53 -17
25 17 84 93 94 121 3 10 17 37 30 60 47 82 93 186 124 276 35 104 59 264 42
281 -8 8 -13 7 -19 -2z"/>
<path d="M5 1395 c2 -82 11 -188 20 -234 12 -63 14 -91 6 -108 -14 -31 -14
-280 0 -363 17 -97 15 -357 -5 -484 -18 -120 -21 -206 -7 -206 4 0 11 24 14
52 3 29 14 111 23 183 13 106 15 162 8 300 -5 94 -9 285 -9 425 0 140 -4 261
-9 269 -8 13 -19 82 -36 241 -7 58 -8 42 -5 -75z"/>
<path d="M3040 1522 c0 -5 13 -21 29 -36 26 -25 29 -35 34 -114 7 -127 -27
-243 -100 -340 -25 -33 -25 -62 -1 -62 13 1 96 170 117 239 6 19 11 85 11 148
0 113 0 115 -29 144 -28 27 -61 39 -61 21z"/>
<path d="M2170 1486 c0 -7 7 -19 16 -27 9 -7 38 -58 66 -113 28 -56 58 -112
68 -126 10 -14 36 -59 58 -100 41 -76 62 -97 62 -61 0 18 -37 88 -83 155 -11
16 -42 74 -70 130 -28 56 -59 113 -69 129 -20 29 -48 36 -48 13z"/>
<path d="M3345 1390 c-4 -6 -4 -23 -1 -38 4 -15 0 -89 -9 -164 -20 -183 -48
-291 -92 -362 -20 -31 -22 -40 -11 -47 7 -5 16 -9 19 -9 10 0 65 150 83 225
42 184 50 458 11 395z"/>
<path d="M2570 1349 c0 -6 4 -18 10 -28 11 -22 46 -185 55 -259 3 -29 1 -71
-5 -93 -12 -44 -4 -64 20 -49 31 19 4 301 -39 413 -10 26 -41 39 -41 16z"/>
<path d="M2220 1106 c0 -71 42 -395 66 -506 14 -63 27 -127 31 -142 3 -16 12
-28 20 -28 14 0 63 -92 63 -118 0 -21 30 -72 41 -72 14 0 7 35 -25 129 -14 41
-32 110 -40 155 -32 179 -48 307 -42 331 7 28 -5 33 -24 10 -9 -11 -11 -39 -7
-98 5 -81 5 -81 -9 -37 -7 25 -21 127 -31 228 -12 134 -20 182 -30 182 -8 0
-13 -13 -13 -34z"/>
<path d="M3165 1093 c-22 -106 -39 -162 -56 -191 -10 -18 -19 -40 -19 -48 0
-20 29 -18 36 4 3 9 14 38 25 64 15 37 49 171 49 194 0 2 -7 4 -15 4 -8 0 -17
-12 -20 -27z"/>
<path d="M4937 884 c-3 -3 -3 -20 0 -38 3 -17 -3 -81 -12 -141 -9 -61 -23
-157 -30 -215 -8 -58 -21 -143 -30 -190 -8 -47 -20 -119 -25 -160 -5 -41 -12
-90 -16 -107 -5 -26 -3 -33 9 -33 10 0 18 12 21 33 2 17 9 66 15 107 6 41 17
111 25 155 7 44 19 121 26 170 6 50 18 123 26 163 7 40 17 115 20 167 6 80 5
95 -8 95 -8 0 -17 -3 -21 -6z"/>
<path d="M4012 241 c-11 -6 -11 -20 -3 -67 6 -32 15 -83 19 -113 4 -31 13 -56
20 -59 11 -3 12 7 8 49 -4 30 -8 85 -10 124 -4 70 -10 82 -34 66z"/>
</g>
</svg>
